<svg width="30" height="37" viewBox="0 0 30 37" fill="none" xmlns="http://www.w3.org/2000/svg">
<path fill-rule="evenodd" clip-rule="evenodd" d="M0 18.5V36.5H15H30V18.5V0.5H15H0V18.5ZM27.8497 15.3184L27.8318 28.0273H15H2.16825L2.15026 15.3184L2.13235 2.60938H15H27.8677L27.8497 15.3184ZM6.46919 12.6641V20.6094H5.3673H4.2654V21.6622V22.7151L5.34953 22.7345L6.43365 22.7539L6.45277 24.3184L6.4719 25.8828H7.5369H8.6019V24.3008V22.7188H9.66825H10.7346V21.6641V20.6094H9.66825H8.6019V12.6641V4.71875H7.53555H6.46919V12.6641ZM21.3981 6.29888V7.87909L20.3495 7.89849L19.3009 7.91797V8.97266V10.0273L20.3495 10.0468L21.3981 10.0662V17.9746V25.8828H22.4645H23.5308V17.9745V10.0662L24.6149 10.0468L25.6991 10.0273V8.97266V7.91797L24.6149 7.89856L23.5308 7.87916V6.29895V4.71875H22.4645H21.3981V6.29888ZM14.3236 9.19477C12.4929 11.2286 11.1832 13.2349 10.8446 14.5245C10.5191 15.7646 10.9261 17.1809 11.9011 18.2003C12.4076 18.73 12.9166 19.0622 13.6321 19.3302C14.0448 19.4848 14.2298 19.5104 14.9645 19.5146C15.8915 19.52 16.2069 19.4478 17.0261 19.0432C17.6352 18.7422 18.463 17.9039 18.7945 17.2522C19.253 16.3508 19.3808 15.3873 19.1564 14.5245C18.908 13.5698 17.9451 11.9353 16.7802 10.4912C16.0533 9.59014 15.0843 8.51562 14.9986 8.51562C14.9637 8.51562 14.6599 8.82127 14.3236 9.19477ZM15.3771 12.1543C15.8849 12.8076 16.6171 13.9461 16.8612 14.4621C17.1546 15.0823 17.1928 15.5288 16.9965 16.0446C16.9144 16.2604 16.7347 16.567 16.5971 16.7259C16.0054 17.4097 14.9017 17.6214 14.0599 17.2125C13.5677 16.9734 13.2039 16.5713 13.0035 16.0446C12.7908 15.4858 12.8411 15.0614 13.2062 14.3347C13.6268 13.4973 14.8395 11.75 15 11.75C15.0346 11.75 15.2042 11.932 15.3771 12.1543ZM27.8673 32.2812V34.3906H15H2.1327V32.2812V30.1719H15H27.8673V32.2812Z" fill="#E63E1F"/>
</svg>
