<svg width="29" height="29" viewBox="0 0 29 29" fill="none" xmlns="http://www.w3.org/2000/svg">
<path fill-rule="evenodd" clip-rule="evenodd" d="M4.76504 1.13247V2.26495L3.92984 2.26591C3.41644 2.26653 2.94193 2.29898 2.69828 2.35011C1.42379 2.61771 0.361415 3.68009 0.0938114 4.95458C-0.0312705 5.55054 -0.0312705 25.7058 0.0938114 26.3017C0.361415 27.5762 1.42379 28.6386 2.69828 28.9062C3.0323 28.9763 4.03216 28.9895 9.05763 28.9904L15.0206 28.9914L14.4352 28.411C14.1132 28.0917 13.6644 27.5827 13.4379 27.2797L13.0259 26.7288L8.03201 26.7134L3.03802 26.6981L2.82036 26.5477C2.70066 26.465 2.53503 26.2993 2.4523 26.1796L2.30191 25.962L2.28696 18.3036L2.27201 10.6453H14.5035H26.7351V11.8304V13.0155L27.2871 13.4283C27.5907 13.6554 28.1004 14.1046 28.4196 14.4265L29 15.0119L28.999 10.1815C28.9979 4.81432 29.0038 4.91001 28.6237 4.13353C28.3372 3.54838 27.7166 2.92779 27.1314 2.64127C26.542 2.35272 26.0739 2.2671 25.0788 2.26591L24.2436 2.26495V1.13247V0H23.1111H21.9787V1.13247V2.26495H14.5043H7.02999V1.13247V0H5.89752H4.76504V1.13247ZM4.76504 5.66237V6.79485H5.89752H7.02999V5.66237V4.5299H14.5043H21.9787V5.66237V6.79485H23.1111H24.2436V5.65728V4.51976L25.1071 4.53896C25.934 4.55742 25.9799 4.56455 26.1883 4.7086C26.308 4.79133 26.4736 4.95695 26.5563 5.07666L26.7067 5.29432L26.7242 6.83732L26.7417 8.38031H14.5043H2.26692L2.28441 6.83732L2.30191 5.29432L2.4523 5.07666C2.60813 4.85112 2.90184 4.62061 3.09606 4.5714C3.15755 4.55578 3.55828 4.54009 3.98647 4.53647L4.76504 4.5299V5.66237ZM4.31205 14.1559V15.2884H5.44453H6.577V14.1559V13.0235H5.44453H4.31205V14.1559ZM8.84195 14.1559V15.2884H9.97443H11.1069V14.1559V13.0235H9.97443H8.84195V14.1559ZM13.3719 14.1559V15.2884H14.5043H15.6368V14.1559V13.0235H14.5043H13.3719V14.1559ZM20.2799 13.7897C18.6554 14.0165 17.1684 14.7667 15.9719 15.9632C13.7256 18.2095 13.1066 21.4662 14.3676 24.4028C15.0989 26.1058 16.5971 27.604 18.3001 28.3353C20.7184 29.3738 23.3976 29.1418 25.5723 27.7055C26.3253 27.2082 27.2169 26.3166 27.7142 25.5636C29.4068 23.0009 29.4068 19.6934 27.7142 17.1307C27.2165 16.3771 26.3248 15.4855 25.5743 14.9909C23.9973 13.9517 22.139 13.5301 20.2799 13.7897ZM22.6581 16.1367C24.1436 16.4996 25.4785 17.5867 26.1709 18.9973C26.5688 19.8079 26.7016 20.3958 26.7016 21.3471C26.7016 22.2985 26.5688 22.8864 26.1709 23.697C25.4738 25.1173 24.1507 26.1894 22.6298 26.5666C21.9105 26.7449 20.8011 26.7449 20.0818 26.5666C18.5609 26.1894 17.2378 25.1173 16.5407 23.697C16.1428 22.8864 16.01 22.2985 16.01 21.3471C16.01 20.3958 16.1428 19.8079 16.5407 18.9973C17.3038 17.4427 18.7082 16.3811 20.4351 16.0536C21.0169 15.9433 22.0197 15.9808 22.6581 16.1367ZM4.31205 18.6858V19.8183H5.44453H6.577V18.6858V17.5534H5.44453H4.31205V18.6858ZM8.84195 18.6858V19.8183H9.97443H11.1069V18.6858V17.5534H9.97443H8.84195V18.6858ZM20.1667 20.0165V22.4796H22.2618H24.3569V21.3471V20.2147H23.3942H22.4316V18.884V17.5534H21.2992H20.1667V20.0165ZM4.31205 23.2157V24.3482H5.44453H6.577V23.2157V22.0833H5.44453H4.31205V23.2157ZM8.84195 23.2157V24.3482H9.97443H11.1069V23.2157V22.0833H9.97443H8.84195V23.2157Z" fill="#E63E1F"/>
</svg>
