<svg width="29" height="29" viewBox="0 0 29 29" fill="none" xmlns="http://www.w3.org/2000/svg">
<path fill-rule="evenodd" clip-rule="evenodd" d="M12.9539 1.00738C12.111 1.56079 8.88742 3.66982 5.79038 5.69418C2.69335 7.71853 0.144867 9.39839 0.127108 9.42717C0.087788 9.49079 1.24305 11.2905 1.32311 11.2903C1.35431 11.2903 1.90326 10.9468 2.54299 10.5269L3.70614 9.76343L3.7222 10.3557L3.73831 10.9478L3.94915 10.98C4.6088 11.0806 5.11945 11.2092 5.52178 11.3762L5.97569 11.5645L5.99147 9.91043L6.00724 8.25645L10.268 5.4755C12.6115 3.94599 14.5519 2.70115 14.58 2.70926C14.6082 2.71732 16.5193 3.95597 18.8269 5.46183L23.0224 8.19969L23.0241 11.1356L23.0257 14.0716L23.1818 14.1072C23.7962 14.2474 24.4796 14.432 24.8371 14.5541C25.0688 14.6333 25.2667 14.698 25.2768 14.698C25.287 14.698 25.2953 13.5871 25.2953 12.2292C25.2953 10.7098 25.316 9.76042 25.3491 9.76042C25.3787 9.76042 25.9304 10.1065 26.575 10.5293C27.2196 10.9522 27.7694 11.2906 27.7966 11.2813C27.8473 11.264 28.9788 9.55918 29 9.46826C29.0064 9.44067 27.5563 8.46581 25.7776 7.30202L22.5434 5.18589L22.5286 2.73423L22.5139 0.282521H21.408H20.3023V1.98514C20.3023 2.92158 20.2909 3.68776 20.2771 3.68776C20.2633 3.68776 18.9818 2.85773 17.4296 1.84325C15.8772 0.828778 14.58 -0.000680628 14.5468 4.19093e-07C14.5136 0.00073822 13.7969 0.454032 12.9539 1.00738ZM12.9829 10.4415V12.1441H14.6851H16.3873V10.4415V8.73885H14.6851H12.9829V10.4415ZM2.74158 13.277C2.04142 13.4283 1.38393 13.8086 0.881565 14.353C-0.188757 15.5126 -0.297015 17.3061 0.625616 18.5941C0.879522 18.9486 9.54746 27.4538 10.0226 27.8148C10.4922 28.1714 11.3976 28.6175 11.9616 28.77C12.1957 28.8333 12.6297 28.9104 12.9262 28.9415C13.2557 28.976 16.4804 28.9984 21.2243 28.999L28.9833 29V27.8664V26.7329L20.9406 26.7171L12.8978 26.7015L12.4161 26.5334C12.151 26.4409 11.7627 26.2493 11.553 26.1077C11.3056 25.9406 9.64278 24.3455 6.82076 21.5681C3.39793 18.1994 2.44597 17.232 2.3578 17.0326C1.96363 16.1413 2.92155 15.2 3.83562 15.5804C4.05173 15.6703 4.21219 15.8239 8.1034 19.667C9.24243 20.7919 10.2962 21.7958 10.445 21.8977C10.8291 22.1608 11.3625 22.3998 11.7916 22.5013C11.9943 22.5493 12.9645 22.6759 13.9475 22.7827C18.4033 23.2669 20.8136 23.5131 20.8399 23.4868C20.8835 23.4432 21.102 21.3247 21.0665 21.2892C21.0494 21.2722 19.8939 21.1367 18.4986 20.9883C11.7411 20.2694 12.0551 20.3177 11.6111 19.9278C11.3462 19.6951 11.2599 19.4758 11.2939 19.1215C11.3144 18.9078 11.3628 18.7917 11.4855 18.6611C11.8086 18.3174 11.6205 18.3303 16.3309 18.3303C19.0395 18.3303 20.8524 18.3531 21.1981 18.3915C22.3494 18.5194 23.3685 18.7878 24.4317 19.2433C25.3225 19.6249 25.9077 19.983 27.5215 21.1341C28.2916 21.6833 28.9356 22.1328 28.9525 22.1328C28.9695 22.1328 28.9828 21.5134 28.9822 20.7565L28.9811 19.3802L28.2861 18.8882C26.4007 17.5533 24.9571 16.8625 23.1622 16.436C21.7241 16.0943 21.8692 16.1024 16.6652 16.0771C11.3714 16.0513 11.4767 16.0455 10.755 16.4036C10.2254 16.6665 9.67257 17.175 9.41401 17.6372C9.37293 17.7106 8.99057 17.3615 7.43468 15.83C5.39508 13.8224 5.1426 13.6179 4.41537 13.3851C4.00538 13.2538 3.11475 13.1962 2.74158 13.277Z" fill="#E63E1F"/>
</svg>
