<svg width="29" height="29" viewBox="0 0 29 29" fill="none" xmlns="http://www.w3.org/2000/svg">
<path fill-rule="evenodd" clip-rule="evenodd" d="M15.4565 0.0138362C13.8151 0.204182 12.6227 0.595925 11.3896 1.34994C10.2338 2.0567 9.09065 3.20014 8.38151 4.35871C7.45704 5.86918 7.04507 7.36753 7.04558 9.21772C7.0458 10.0167 7.07051 10.3333 7.17285 10.8472C7.57219 12.8526 8.43008 14.402 9.93953 15.8437L10.6114 16.4855L10.4725 16.5775C10.0991 16.8251 9.76811 17.1585 9.44414 17.6137C9.35444 17.7397 9.33477 17.7225 7.42587 15.8452C5.38499 13.8381 5.13429 13.6355 4.40628 13.4047C2.51025 12.8035 0.478714 13.9999 0.0649838 15.9612C-0.0459713 16.4871 -0.0129907 17.1478 0.149759 17.6612C0.407709 18.4748 0.390369 18.4557 5.02963 23.0152C7.41391 25.3584 9.50381 27.3985 9.67393 27.5489C10.1299 27.9518 10.7024 28.3037 11.2982 28.547C12.389 28.9925 11.6799 28.9603 20.8257 28.9796L29 28.9969V27.8625V26.728L21.0807 26.727C12.2403 26.7259 12.75 26.7483 11.8876 26.3232C11.4672 26.1159 11.301 25.9826 10.556 25.2548C1.84695 16.7469 2.21308 17.1317 2.27116 16.5479C2.31214 16.1363 2.52889 15.8308 2.91372 15.6426C3.16753 15.5184 3.26914 15.4983 3.50363 15.5261C3.65946 15.5445 3.86891 15.6157 3.96909 15.6841C4.15173 15.8089 4.8526 16.4886 8.23633 19.8229C9.23646 20.8084 10.1781 21.7089 10.3289 21.824C10.6911 22.1004 11.267 22.3863 11.6881 22.4986C12.0888 22.6055 20.7768 23.5712 20.8383 23.5157C20.8578 23.4982 21.1146 21.29 21.0974 21.2876C21.096 21.2873 19.1069 21.0709 16.6772 20.8067C12.4627 20.3483 12.2457 20.3191 11.9556 20.1724C11.4175 19.9002 11.1983 19.5257 11.2902 19.0359C11.3395 18.7731 11.6946 18.4177 11.957 18.3685C12.0586 18.3494 14.1817 18.3448 16.675 18.3581C21.589 18.3845 21.5709 18.3834 22.8451 18.7168C24.4851 19.146 25.4582 19.6649 27.8502 21.3859C28.4178 21.7943 28.9087 22.1448 28.9411 22.1648C28.9812 22.1897 29 21.7592 29 20.812V19.4228L28.2492 18.8873C27.2234 18.1558 26.6638 17.8163 25.7983 17.4005C24.7254 16.8849 23.4173 16.4645 22.2947 16.2745L22.0779 16.2378L22.6942 15.6015C24.0852 14.1656 24.8579 12.684 25.2403 10.7194C25.3626 10.0914 25.3778 8.43769 25.2671 7.80103C24.9087 5.73805 24.1346 4.19358 22.744 2.76669C21.3425 1.32852 19.7234 0.47851 17.6958 0.116518C17.2409 0.0353132 15.8294 -0.0294012 15.4565 0.0138362ZM17.0483 2.30961C20.8285 2.80165 23.5314 6.27554 23.0446 10.0162C22.5525 13.7964 19.0786 16.4993 15.338 16.0125C12.928 15.6988 10.8963 14.1883 9.89051 11.9625C9.23277 10.507 9.11162 8.88491 9.54388 7.32293C10.4548 4.0314 13.6871 1.87214 17.0483 2.30961Z" fill="#E63E1F"/>
</svg>
