<svg width="30" height="31" viewBox="0 0 30 31" fill="none" xmlns="http://www.w3.org/2000/svg">
<rect y="28.5469" width="30" height="2" fill="#E63E1F"/>
<path d="M23.5 29.0469V3.04688H27.5V29.0469" stroke="#E63E1F" stroke-width="2"/>
<path d="M19.6841 28.7914V19.5115C19.6841 18.1158 18.5527 16.9844 17.157 16.9844H17.0413C15.7095 16.9844 14.6299 18.064 14.6299 19.3958V19.3958" stroke="#E63E1F" stroke-width="2"/>
<path fill-rule="evenodd" clip-rule="evenodd" d="M0.179236 17.2959C0.573411 17.1163 1.27715 16.9842 1.83859 16.9844C2.58216 16.9846 3.1489 17.1539 4.10625 17.6619C4.79163 18.0256 4.85128 18.0435 5.36983 18.0419C5.9529 18.0401 6.28075 17.9181 6.73885 17.5327L6.96627 17.3413L6.96627 18.4275L6.96627 19.5136L6.76672 19.5916C6.06748 19.8648 5.08291 19.9161 4.38476 19.7157C4.14827 19.6479 3.59561 19.4083 3.15659 19.1833C2.41476 18.8032 2.32253 18.7742 1.85042 18.7718C1.25567 18.7688 0.795098 18.9233 0.3219 19.2845L-1.11284e-07 19.5303L-6.42348e-08 18.4539C-1.72807e-08 17.3797 0.000362766 17.3774 0.179236 17.2959ZM0.453533 20.7645C0.740892 20.664 1.15967 20.5923 1.59644 20.5687C2.48028 20.5211 2.96466 20.644 4.02571 21.1855C5.03923 21.7026 5.48412 21.7599 6.14389 21.4582C6.37668 21.3516 6.65787 21.1778 6.76868 21.0718L6.97019 20.879L6.95009 21.9982L6.92999 23.1174L6.4946 23.2592C5.9857 23.4249 4.93938 23.4517 4.42648 23.3121C4.24689 23.2632 3.69648 23.0211 3.20332 22.7741C2.34771 22.3455 2.28305 22.3252 1.7883 22.33C1.24304 22.3352 0.776158 22.5118 0.235837 22.9173L-2.67073e-07 23.0943L-2.19625e-07 22.0088L-1.72176e-07 20.9233L0.453533 20.7645ZM0.223936 24.4261C0.531541 24.267 1.33259 24.1054 1.81413 24.1051C2.45699 24.1048 3.09767 24.2951 4.02738 24.7624C4.80433 25.1528 4.94576 25.2001 5.34008 25.2015C5.83904 25.2031 6.2232 25.0681 6.6173 24.7526C6.76468 24.6347 6.9043 24.5382 6.92767 24.5382C6.95103 24.5382 6.96112 25.0198 6.95009 25.6085L6.92999 26.6789L6.53088 26.8114C5.98722 26.9919 5.25257 27.0434 4.70245 26.9394C4.43185 26.8882 3.84154 26.6599 3.25709 26.3804C2.34945 25.9463 2.23022 25.9079 1.79026 25.9079C1.26402 25.9079 0.882394 26.0425 0.328938 26.4232L-4.22479e-07 26.6496L-3.76416e-07 25.5958L-3.3035e-07 24.5419L0.223936 24.4261Z" fill="#E63E1F"/>
<path fill-rule="evenodd" clip-rule="evenodd" d="M6.01873 13.3524V12.234L5.6234 12.1122C5.40595 12.0453 5.03626 11.8953 4.80181 11.7791C4.56744 11.6627 4.33858 11.5676 4.29341 11.5676C4.24823 11.5676 3.76609 12.0136 3.222 12.5587L2.23281 13.5498L1.6121 12.9319C1.27066 12.592 0.99132 12.281 0.99132 12.2407C0.99132 12.2005 1.4321 11.7276 1.97089 11.1899L2.95038 10.2122L2.64923 9.6121C2.48354 9.28199 2.32677 8.88596 2.30071 8.73195L2.25341 8.45198H1.12671H0V7.53324V6.61457L1.09959 6.59502L2.19924 6.57555L2.40013 5.99527C2.51059 5.67607 2.68301 5.27777 2.7832 5.11017L2.96553 4.80534L1.9614 3.7961L0.957332 2.78687L1.61139 2.13281L2.26545 1.47875L3.27468 2.4819L4.28392 3.48504L4.74807 3.2484C5.00326 3.11825 5.39363 2.95893 5.61547 2.8945L6.01873 2.77724V1.64933V0.52142H6.93924H7.85975V1.64933V2.77724L8.2669 2.89485C8.4908 2.9595 8.8915 3.12625 9.15725 3.26546L9.64051 3.51846L10.6449 2.51581L11.6494 1.51316L12.3035 2.16722L12.9575 2.82135L11.9533 3.82747L10.9489 4.83359L11.1337 5.17347C11.2353 5.36048 11.3988 5.7524 11.497 6.04449L11.6756 6.57555L12.777 6.59502L13.8785 6.61457V7.53324V8.45198H12.7534H11.6284L11.5804 8.71751C11.554 8.86352 11.404 9.25041 11.247 9.5772L10.9617 10.1713L11.9768 11.1883L12.992 12.2053L12.3379 12.8593L11.6838 13.5134L10.6726 12.5039L9.6614 11.4945L9.16149 11.7408C8.88654 11.8763 8.48117 12.0426 8.26067 12.1105L7.85975 12.234V13.3524V14.4707H6.93924H6.01873V13.3524ZM7.51378 10.3627C8.29296 10.2159 9.16057 9.59015 9.49564 8.93326C9.97317 7.99731 9.95929 6.86587 9.45995 6.01503C8.87904 5.02534 7.60703 4.42474 6.50362 4.61911C5.02698 4.87919 4.03765 6.03344 4.03765 7.49606C4.03765 8.33585 4.30983 9.00457 4.88027 9.56608C5.59763 10.2722 6.5175 10.5505 7.51378 10.3627Z" fill="#E63E1F"/>
</svg>
