<svg width="30" height="31" viewBox="0 0 30 31" fill="none" xmlns="http://www.w3.org/2000/svg">
<path fill-rule="evenodd" clip-rule="evenodd" d="M14.1133 4.03264L14.096 7.56528L12.7742 7.58343L11.4523 7.60158L11.4349 10.4611L11.4174 13.3206L5.70871 17.2724L0 21.2242V23.6532V26.0824H5.71547H11.431L11.4704 26.8358C11.5331 28.0302 11.8421 28.8183 12.5085 29.483C13.1236 30.0965 14.1122 30.5 15 30.5C15.8878 30.5 16.8764 30.0965 17.4915 29.483C18.1579 28.8183 18.4669 28.0302 18.5296 26.8358L18.569 26.0824H24.2845H30V23.6518V21.2214L28.4096 20.121C27.5349 19.5157 25.7344 18.2687 24.4085 17.3498C23.0826 16.4308 21.518 15.3484 20.9316 14.9443C20.3453 14.5403 19.5769 14.0075 19.224 13.7604L18.5826 13.311L18.5651 10.4563L18.5477 7.60158L17.2258 7.58343L15.904 7.56528L15.8867 4.03264L15.8693 0.5H15H14.1307L14.1133 4.03264ZM1.49096 5.10415C0.833504 5.90062 0.423348 6.69957 0.186228 7.64558C-0.0203573 8.46971 -0.0179464 9.87064 0.191451 10.6459C0.353505 11.2459 0.75442 12.1272 1.08161 12.6027C1.33915 12.9772 1.73545 13.4251 1.80911 13.4251C1.87862 13.4251 3.01339 12.2963 3.01339 12.2272C3.01339 12.1976 2.95138 12.1173 2.87551 12.0487C2.79971 11.98 2.60658 11.7117 2.44641 11.4523C1.46712 9.86683 1.56991 7.9142 2.71219 6.4045L3.03308 5.98045L2.43871 5.38322C2.11179 5.0548 1.82391 4.78605 1.79893 4.78605C1.77395 4.78605 1.6354 4.92923 1.49096 5.10415ZM27.5613 5.38322L26.9669 5.98045L27.2878 6.4045C28.1837 7.58859 28.4552 9.06219 28.026 10.4115C27.8458 10.9781 27.3871 11.811 27.1245 12.0487C27.0486 12.1173 26.9866 12.1976 26.9866 12.2272C26.9866 12.2963 28.1214 13.4251 28.1909 13.4251C28.2646 13.4251 28.6608 12.9772 28.9184 12.6027C29.2456 12.1272 29.6465 11.2459 29.8085 10.6459C30.0179 9.87064 30.0204 8.46971 29.8138 7.64558C29.6492 6.98915 29.3225 6.2348 28.9907 5.74539C28.7131 5.33594 28.2605 4.78605 28.2011 4.78605C28.1761 4.78605 27.8882 5.0548 27.5613 5.38322ZM4.1179 7.47642C4.01424 7.59897 3.85145 7.86497 3.75603 8.06756C3.60382 8.39082 3.58259 8.52194 3.58259 9.13907C3.58259 9.83281 3.5862 9.84888 3.85125 10.3377C3.99897 10.6103 4.16592 10.8622 4.2221 10.8977C4.30192 10.948 4.45246 10.8341 4.90775 10.3787C5.22857 10.0579 5.49107 9.77166 5.49107 9.74273C5.49107 9.7138 5.44607 9.60384 5.39103 9.49829C5.25763 9.24254 5.2644 9.01712 5.41413 8.72339L5.53801 8.48029L4.92214 7.86692L4.30634 7.25361L4.1179 7.47642ZM25.0704 7.88486L24.4656 8.50286L24.5876 8.73725C24.7355 9.02147 24.7418 9.24361 24.609 9.49829C24.5539 9.60384 24.5089 9.7138 24.5089 9.74273C24.5089 9.77166 24.7714 10.0579 25.0923 10.3787C25.5475 10.8341 25.6981 10.948 25.7779 10.8977C25.8341 10.8622 26.001 10.6103 26.1487 10.3377C26.4139 9.84874 26.4174 9.83307 26.4174 9.13766C26.4174 8.48002 26.4031 8.40401 26.2027 7.99684C26.0845 7.75688 25.9176 7.4945 25.8316 7.41366L25.6752 7.2668L25.0704 7.88486ZM16.7411 11.1147V12.8894H15H13.2589V11.1147V9.33998H15H16.7411V11.1147ZM21.724 17.6416C24.1146 19.2976 26.1019 20.6839 26.1402 20.7222C26.1884 20.7703 22.7541 20.7918 14.9991 20.7918C5.49763 20.7918 3.80324 20.7778 3.88634 20.6999C3.94025 20.6494 5.26507 19.7238 6.83036 18.643C8.39565 17.5623 10.3383 16.2173 11.1474 15.6543L12.6185 14.6306H14.9979H17.3772L21.724 17.6416ZM28.2589 23.4705V24.3411H15H1.74107V23.4705V22.5999H15H28.2589V23.4705ZM16.7284 26.8023C16.6971 27.625 16.5849 27.9207 16.164 28.2903C15.805 28.6056 15.5001 28.7166 15 28.7143C14.5045 28.712 14.1804 28.5926 13.8267 28.2821C13.4154 27.921 13.3028 27.6206 13.2716 26.8023L13.2441 26.0824H15H16.7559L16.7284 26.8023Z" fill="#E63E1F"/>
</svg>
