<svg width="320" height="320" viewBox="0 0 320 320" fill="none" xmlns="http://www.w3.org/2000/svg">
<path fill-rule="evenodd" clip-rule="evenodd" d="M261.689 0.267732C259.916 0.41226 254.116 0.885912 248.799 1.32093C157.564 8.77629 84.6943 50.2051 41.8389 118.984C19.2998 155.158 6.43125 195.869 0.903176 248.487C-0.0756946 257.802 -0.359255 304.21 0.556602 305.126C0.853771 305.422 35.3226 271.468 77.1534 229.673L153.21 153.682L159.832 160.298L166.455 166.915L90.4007 242.91C48.5714 284.706 14.5895 319.147 14.8866 319.444C15.8032 320.359 62.2491 320.076 71.5716 319.098C98.4816 316.275 115.795 312.952 138.161 306.318C213.453 283.984 270.464 232.079 298.736 160.124C309.434 132.896 315.285 107.989 318.734 74.9816C320.881 54.4322 320.147 5.0665 317.658 2.60737C316.133 1.10056 273.389 -0.686011 261.689 0.267732Z" fill="#CAC4C2" fill-opacity="0.15"/>
</svg>
