<svg width="29" height="29" viewBox="0 0 29 29" fill="none" xmlns="http://www.w3.org/2000/svg">
<path fill-rule="evenodd" clip-rule="evenodd" d="M10.9707 3.23187C9.02359 5.00942 5.7586 7.98904 3.71528 9.85315L0 13.2426L0.322293 13.593C0.499523 13.7857 0.841676 14.1591 1.08249 14.4225C1.58579 14.973 1.44329 15.0017 2.34364 14.1684L2.83448 13.7142L2.87224 20.0583C2.91362 27.0146 2.88417 26.5737 3.36278 27.3906C3.6122 27.8162 4.29734 28.4282 4.77911 28.6556C5.51907 29.0049 5.73912 29.016 11.5081 28.9924L16.9347 28.9703L16.3033 28.468C15.956 28.1918 15.4002 27.6904 15.0682 27.354L14.4647 26.7423L10.2731 26.7406C6.30313 26.739 6.06466 26.7313 5.76223 26.5939C5.57782 26.5103 5.37847 26.3434 5.29049 26.1991C5.14052 25.953 5.13826 25.84 5.14218 18.7744L5.14611 11.5995L8.54634 8.50299C15.1032 2.53183 14.4848 3.06496 14.6668 3.22635C14.7543 3.30384 16.0834 4.51436 17.6204 5.91625L20.4149 8.46522L22.0834 8.4625L23.7518 8.45971L23.3337 8.066C23.1038 7.84939 21.8125 6.66682 20.4642 5.43803C18.298 3.46388 16.264 1.60634 14.9403 0.393485L14.5109 0L10.9707 3.23187ZM20.6182 10.7867C20.3356 10.8394 19.5386 11.2157 19.1651 11.4727C18.3615 12.0256 16.9627 12.6313 15.8984 12.8869C14.8688 13.1342 14.2041 13.6666 13.8957 14.4908C13.7442 14.896 13.7392 15.0223 13.7643 17.825C13.7893 20.6004 13.7989 20.7684 13.9669 21.38C14.7376 24.1848 17.1798 26.8446 20.5433 28.5425L21.3354 28.9424L21.7511 28.7577C22.3417 28.4955 23.561 27.7813 24.1942 27.3268C26.9569 25.3436 28.5795 22.9826 28.9205 20.4494C28.9642 20.1244 29 18.7797 29 17.4609C29 14.8056 28.971 14.5892 28.5274 13.9344C28.2425 13.5141 27.6859 13.1085 27.2377 12.9947C25.6291 12.5862 24.8238 12.2523 23.4939 11.4424C22.6138 10.9065 22.0662 10.7276 21.3475 10.7412C21.0501 10.7469 20.722 10.7674 20.6182 10.7867ZM22.5058 13.489C23.7386 14.2463 25.38 14.9382 26.2881 15.0835C26.449 15.1092 26.6181 15.1754 26.6638 15.2305C26.7221 15.3007 26.7377 16.0836 26.7159 17.8456C26.6906 19.8987 26.6617 20.4436 26.5583 20.8136C26.3807 21.4488 25.8272 22.5349 25.3802 23.1248C24.6123 24.1383 23.0333 25.4789 21.7743 26.1862L21.3343 26.4333L20.6742 26.0256C18.7085 24.8118 17.2421 23.3191 16.5392 21.8168C16.0606 20.7939 16.0116 20.4089 16.0116 17.6701V15.1928L16.3326 15.1134C17.9202 14.7207 18.973 14.2668 20.5047 13.3145C21.2381 12.8586 21.5195 12.8831 22.5058 13.489Z" fill="#E63E1F"/>
</svg>
