<svg width="30" height="31" viewBox="0 0 30 31" fill="none" xmlns="http://www.w3.org/2000/svg">
<path fill-rule="evenodd" clip-rule="evenodd" d="M11.9075 3.32865C10.2025 4.88446 8.13102 6.77586 7.30421 7.53184C6.4774 8.28782 5.09135 9.55136 4.2241 10.3398C3.35685 11.1282 2.16793 12.2127 1.58204 12.7497C0.996215 13.2867 0.400548 13.8269 0.258394 13.9499L0 14.1738L0.333857 14.5524C0.517458 14.7608 0.87368 15.1546 1.12545 15.4278L1.58318 15.9245L2.24915 15.3162L2.91512 14.7078L2.9486 21.2125C2.98001 27.3166 2.98965 27.7378 3.10535 28.0518C3.50282 29.1308 4.33211 29.9616 5.36294 30.314C5.79067 30.4601 5.83821 30.4616 10.9084 30.4807L16.0224 30.5L15.8107 30.2466C15.3945 29.7484 14.9182 29.0486 14.6929 28.6041L14.4639 28.1523L10.3634 28.1508C6.52816 28.1494 6.24573 28.1413 5.99523 28.0263C5.67664 27.8801 5.53389 27.7308 5.39515 27.3989C5.30455 27.1821 5.29243 26.2718 5.29417 19.8368L5.29625 12.5212L6.40301 11.5171C8.24063 9.84985 8.53063 9.58583 10.8152 7.50051C14.4443 4.18793 14.9655 3.71866 15.0161 3.71846C15.0427 3.71833 15.4495 4.07225 15.9201 4.50497C16.3906 4.93762 17.4445 5.90212 18.2621 6.64826L19.7485 8.00485L21.4716 7.98698L23.1948 7.96911L19.8848 4.9508C18.0642 3.29076 16.2221 1.61024 15.7911 1.21628L15.0075 0.5L11.9075 3.32865ZM20.8601 10.414C19.6977 10.6472 18.6951 11.4099 18.1777 12.4543C17.7615 13.2947 17.749 13.4441 17.7477 17.5986L17.7465 21.337L17.4719 21.6486C17.0743 22.0997 16.7003 22.7614 16.4586 23.4413C16.2573 24.0076 16.2472 24.0837 16.2437 25.0729C16.2402 26.0341 16.2537 26.1526 16.4275 26.6823C17.0143 28.4718 18.4296 29.8287 20.2057 30.3047C20.8856 30.4869 22.1234 30.5025 22.798 30.3373C26.0801 29.5336 27.8445 25.9586 26.4627 22.9119C26.2487 22.4401 25.9592 21.9861 25.605 21.5666L25.3857 21.3069L25.366 17.3492L25.3464 13.3914L25.1707 12.9401C24.7769 11.928 24.1943 11.253 23.3165 10.7918C22.5737 10.4016 21.6386 10.2577 20.8601 10.414ZM27.1208 13.2576V14.4291H28.5604H30V13.2576V12.0861H28.5604H27.1208V13.2576ZM22.2976 12.8962C22.5964 13.0641 22.8718 13.4194 22.9709 13.765C23.0103 13.9025 23.0363 15.6508 23.0363 18.1682V22.3434L23.5628 22.8546C24.3908 23.6587 24.6863 24.4516 24.5632 25.5398C24.4233 26.7768 23.3178 27.8813 22.0012 28.0995C20.753 28.3062 19.4367 27.5918 18.8179 26.3717C18.5901 25.9227 18.5835 25.8877 18.5835 25.1348V24.3599L18.8702 23.7817C19.1032 23.3113 19.2439 23.1254 19.6234 22.7856L20.0901 22.3679L20.0905 18.2144C20.0907 15.4412 20.1149 13.9742 20.1633 13.7999C20.303 13.2968 20.6694 12.9033 21.1379 12.7534C21.4325 12.6591 21.9999 12.729 22.2976 12.8962ZM27.1654 16.2142C27.1409 16.2387 27.1208 16.7659 27.1208 17.3857V18.5125H28.5604H30V17.3411V16.1696H28.605C27.8378 16.1696 27.1899 16.1896 27.1654 16.2142ZM27.1208 21.4915V22.663H28.5604H30V21.4915V20.32H28.5604H27.1208V21.4915ZM21.1213 24.0624C20.4088 24.3859 20.2446 25.3314 20.8014 25.9045C21.3456 26.4648 22.2522 26.3411 22.6385 25.6539C22.8318 25.3102 22.8002 24.7302 22.5708 24.408C22.3868 24.1496 21.963 23.9378 21.6301 23.9378C21.5012 23.9378 21.2722 23.9939 21.1213 24.0624Z" fill="#E63E1F"/>
</svg>
