<svg width="23" height="16" viewBox="0 0 23 16" fill="none" xmlns="http://www.w3.org/2000/svg">
<path fill-rule="evenodd" clip-rule="evenodd" d="M10.2422 0.014318C7.95477 0.204701 6.63707 0.49804 5.43636 1.08414C5.0472 1.27413 4.84545 1.40575 4.61446 1.62034C4.09494 2.10304 3.5884 2.93364 3.07387 4.14664L2.83929 4.69969L1.61058 4.72181C0.522352 4.74141 0.368135 4.75309 0.262164 4.82397C0.132205 4.91087 0 5.14589 0 5.29004C0 5.47905 0.365799 7.09193 0.430846 7.18971C0.568396 7.39651 0.754283 7.4646 1.18149 7.46477L1.5768 7.46495L1.37362 7.74542C1.11083 8.10813 0.87993 8.59128 0.757068 9.03562C0.616283 9.54469 0.616283 10.5618 0.757068 11.0709C0.933117 11.7076 1.32281 12.3923 1.72513 12.7719L1.88672 12.9243L1.88771 14.1213C1.88879 15.4538 1.90747 15.5548 2.19681 15.7946C2.43773 15.9943 2.57892 16.0108 3.9118 15.9958L5.15074 15.982L5.31246 15.8604C5.64371 15.6114 5.6801 15.5181 5.70508 14.8537L5.72754 14.2564H11.5H17.2725L17.2949 14.8537C17.3199 15.5181 17.3563 15.6114 17.6875 15.8604L17.8493 15.982L19.0882 15.9958C20.4211 16.0108 20.5623 15.9943 20.8032 15.7946C21.0914 15.5558 21.1112 15.4505 21.1123 14.1528L21.1133 12.9873L21.3644 12.7148C22.6009 11.3735 22.6998 9.20994 21.5917 7.74148L21.383 7.46495L21.7984 7.46477C22.2472 7.4646 22.4296 7.39947 22.5692 7.18971C22.6342 7.09193 23 5.47905 23 5.29004C23 5.14589 22.8678 4.91087 22.7378 4.82397C22.6319 4.75309 22.4777 4.74141 21.3905 4.72181L20.1629 4.69969L19.9437 4.17827C19.4299 2.95634 18.9931 2.23162 18.4427 1.68759C18.13 1.37859 18.0111 1.29629 17.5645 1.07981C16.5614 0.593696 15.3682 0.289605 13.7012 0.095329C13.1288 0.0286088 10.742 -0.0273158 10.2422 0.014318ZM13.5678 1.82098C15.0597 2.00079 16.1095 2.27387 16.8682 2.67932C17.2823 2.90068 17.533 3.20835 17.9015 3.94754C18.1649 4.47586 18.5977 5.50852 18.5977 5.60864C18.5977 5.63537 15.9818 5.65094 11.5 5.65094C7.01819 5.65094 4.40234 5.63537 4.40234 5.60864C4.40234 5.50852 4.83512 4.47586 5.09854 3.94754C5.46704 3.20835 5.7177 2.90068 6.13184 2.67932C7.04047 2.1937 8.4525 1.87934 10.3545 1.73931C10.8665 1.70161 13.0348 1.75674 13.5678 1.82098ZM5.28128 8.57491C6.65275 8.82236 7.18382 10.4814 6.20138 11.4491C5.5302 12.1101 4.44246 12.1101 3.77128 11.4491C2.81144 10.5037 3.28509 8.87979 4.60449 8.59251C4.94783 8.51779 4.96256 8.51739 5.28128 8.57491ZM18.6701 8.66609C19.1006 8.82307 19.4159 9.13008 19.64 9.61079C19.7245 9.79215 19.7431 9.90772 19.7431 10.2523C19.7432 10.6308 19.7293 10.7013 19.6041 10.9602C19.164 11.8709 18.1241 12.1968 17.1771 11.7209C16.9636 11.6136 16.6169 11.2575 16.4966 11.0218C16.1664 10.3751 16.2986 9.55934 16.8161 9.0496C17.3024 8.5707 18.008 8.42474 18.6701 8.66609Z" fill="#E63E1F"/>
</svg>
