<svg width="30" height="31" viewBox="0 0 30 31" fill="none" xmlns="http://www.w3.org/2000/svg">
<path fill-rule="evenodd" clip-rule="evenodd" d="M14.1211 2.50143V4.33787L13.6377 4.49648C12.5422 4.8559 11.6147 5.64633 11.1154 6.64588C10.6729 7.53199 10.6477 7.67672 10.6199 9.49805L10.5957 11.0947H14.9951H19.3945V9.69363C19.3945 8.17477 19.3362 7.6827 19.0816 7.0524C18.8419 6.45867 18.5676 6.05127 18.0762 5.55873C17.5368 5.01814 17.0484 4.71352 16.3623 4.48986L15.8789 4.3323V2.49867V0.665039H15H14.1211V2.50143ZM15.8789 6.18076C16.5781 6.42029 17.1884 7.02082 17.4653 7.7417C17.5579 7.98305 17.6021 8.25387 17.6229 8.70703L17.6518 9.33691H15.0075H12.3633V8.85117C12.3633 7.98217 12.618 7.32645 13.1655 6.78568C13.8762 6.08373 14.9179 5.85152 15.8789 6.18076ZM0 21.9639V30.665H5.03906H10.0781L10.0777 27.75C10.0774 26.0589 10.0522 24.6751 10.0175 24.4541C9.85541 23.4213 9.02502 22.5212 8.02061 22.2896C7.87928 22.2571 7.2034 22.2298 6.51855 22.2289L5.27344 22.2275V18.9C5.27344 15.2507 5.26816 15.1863 4.92088 14.5793C4.71234 14.2149 4.21652 13.734 3.86291 13.5532C3.35877 13.2955 3.10395 13.2641 1.50879 13.2634L0 13.2627V21.9639ZM26.6016 13.373C26.4243 13.4302 26.1885 13.5244 26.0776 13.5823C25.7731 13.7412 25.2728 14.2407 25.0791 14.5793C24.7318 15.1863 24.7266 15.2512 24.7266 18.8954V22.2182L23.335 22.2376L21.9434 22.2568L21.4875 22.4745C20.6708 22.8645 20.1178 23.5918 19.9825 24.4541C19.9478 24.6751 19.9226 26.0589 19.9223 27.75L19.9219 30.665H24.9609H30V21.9639V13.2627L28.4619 13.2659C27.1549 13.2685 26.8754 13.2846 26.6016 13.373ZM3.13939 15.1689C3.22699 15.2344 3.34746 15.379 3.40717 15.4903C3.50982 15.6816 3.51562 15.9153 3.51562 19.8389V23.9854H5.58703C7.63869 23.9854 7.66031 23.9866 7.85215 24.1172C7.95867 24.1897 8.101 24.3234 8.16844 24.4144C8.2868 24.574 8.2916 24.6538 8.30836 26.7435L8.3257 28.9072H5.04176H1.75781V21.9585V15.0098L2.36895 15.0298C2.8718 15.0463 3.00832 15.0709 3.13939 15.1689ZM28.2422 21.9639V28.9072H24.9582H21.6743L21.6916 26.7435C21.7084 24.6538 21.7132 24.574 21.8316 24.4144C21.899 24.3234 22.0413 24.1897 22.1479 24.1172C22.3397 23.9866 22.3613 23.9854 24.4119 23.9854H26.4821L26.4979 19.7812L26.5137 15.5771L26.6541 15.3803C26.8539 15.1001 27.0725 15.0254 27.7002 15.0228L28.2422 15.0205V21.9639ZM8.49609 19.5908V20.4697H11.3086H14.1211V24.6885V28.9072H12.9785H11.8359V29.7861V30.665H15H18.1641V29.7861V28.9072H17.0215H15.8789V24.6885V20.4697H18.6914H21.5039V19.5908V18.7119H15H8.49609V19.5908Z" fill="#E63E1F"/>
</svg>
