<svg width="29" height="33" viewBox="0 0 29 33" fill="none" xmlns="http://www.w3.org/2000/svg">
<path fill-rule="evenodd" clip-rule="evenodd" d="M16.9189 1.45314C16.626 1.89763 15.9933 2.85759 15.5128 3.58634C15.0323 4.3151 14.157 5.64456 13.5677 6.54077C12.9783 7.43691 12.4748 8.17018 12.4486 8.17018C12.4223 8.17018 12.1192 7.85597 11.7748 7.47186C11.4306 7.08782 10.6598 6.29389 10.0621 5.70766L8.97538 4.64177L8.34561 5.2063C7.9993 5.51678 7.27928 6.23802 6.74568 6.80907C3.45277 10.3327 1.33841 13.6013 0.439417 16.558C-0.566312 19.866 0.170629 23.0824 2.48327 25.4783C3.93973 26.9872 5.5523 27.8148 7.75807 28.1854L8.02924 28.231V29.5169V30.8029H5.5706H3.11196V31.7339V32.665H14.0312H24.9505V31.7339V30.8029H22.8896H20.8286V28.3677V25.9325H24.9143C27.1614 25.9325 29 25.9196 29 25.9037C29 25.8878 28.2007 24.6604 27.2238 23.1761C26.2468 21.6918 25.4298 20.4316 25.4082 20.3759C25.3752 20.2906 25.5843 20.2744 26.7221 20.2744C27.7755 20.2744 28.0675 20.2545 28.04 20.1848C28.0205 20.1356 27.0914 18.7094 25.9754 17.0155L23.9463 13.9358L25.0631 13.9161C25.6773 13.9052 26.1798 13.8708 26.1798 13.8396C26.1798 13.7567 17.5813 0.689361 17.5109 0.665296C17.4782 0.654123 17.2118 1.00865 16.9189 1.45314ZM18.0203 4.82312C18.2853 5.22614 18.9375 6.21668 19.4697 7.02422C20.0018 7.83176 20.638 8.79866 20.8835 9.17289C21.129 9.54712 21.638 10.3191 22.0145 10.8885C22.391 11.4579 22.6831 11.9494 22.6635 11.9808C22.6439 12.0121 22.1418 12.0378 21.5475 12.0378C20.9532 12.0378 20.4671 12.0527 20.4671 12.0709C20.4671 12.089 20.868 12.7095 21.3579 13.4496C21.8479 14.1897 22.4068 15.037 22.5999 15.3324C22.793 15.6279 23.2836 16.3729 23.69 16.9881C24.0964 17.6033 24.4657 18.1747 24.5106 18.2578C24.5922 18.409 24.5913 18.4091 23.2195 18.4285L21.8468 18.448L22.716 19.773C23.1941 20.5018 23.9788 21.6943 24.4598 22.423C24.9408 23.1518 25.3819 23.8205 25.44 23.9092L25.5456 24.0704H21.0639H16.5821L16.8965 23.4795C17.2402 22.8336 17.656 21.651 17.7968 20.919C17.933 20.2112 17.9151 18.4993 17.7636 17.7343C17.3327 15.5592 16.1174 13.0591 14.2497 10.5051C13.9705 10.1232 13.742 9.79214 13.742 9.76951C13.742 9.69874 17.4491 4.08763 17.4949 4.08899C17.5189 4.08963 17.7553 4.42003 18.0203 4.82312ZM9.81703 8.15227C13.1337 11.6779 15.3284 15.2586 15.8818 18.0471C16.0404 18.8463 15.9913 20.4422 15.7856 21.1696C15.2399 23.0998 13.9045 24.7316 12.1511 25.6107C11.6539 25.8601 10.6628 26.195 10.234 26.2587L9.90938 26.3069V24.9922V23.6775L11.6263 21.9759L13.3432 20.2743L12.6751 19.6125L12.0069 18.9508L10.9594 19.9864L9.91191 21.0221L9.89253 19.1621L9.87322 17.302L8.95246 17.282L8.03163 17.2619L8.01239 19.1442L7.99308 21.0264L6.9572 19.9948L5.92132 18.963L5.27592 19.5993C4.92094 19.9493 4.63053 20.2687 4.63053 20.3092C4.63053 20.3498 5.39524 21.1398 6.32989 22.0649L8.02924 23.7469V25.0285V26.3101L7.69024 26.2641C7.12099 26.1868 6.00166 25.7684 5.35995 25.3931C4.65678 24.9817 3.67477 24.0959 3.2158 23.4589C2.75292 22.8164 2.32635 21.9157 2.11578 21.1361C1.86644 20.2133 1.85104 18.7116 2.08063 17.7267C2.60707 15.4689 4.21242 12.6656 6.61003 9.81749C7.50042 8.75984 8.84515 7.31644 8.94306 7.31329C8.98833 7.31185 9.38157 7.68938 9.81703 8.15227ZM18.8762 28.3677V30.8029H17.5384H16.2006V28.3677V25.9325H17.5384H18.8762V28.3677ZM14.2482 28.69V30.8029H12.0788H9.90938V29.5169V28.231L10.1806 28.1851C11.4729 27.9666 12.76 27.4976 13.7058 26.9004C13.9842 26.7247 14.2202 26.58 14.2301 26.579C14.24 26.578 14.2482 27.5279 14.2482 28.69Z" fill="#E63E1F"/>
</svg>
