<svg width="29" height="31" viewBox="0 0 29 31" fill="none" xmlns="http://www.w3.org/2000/svg">
<path fill-rule="evenodd" clip-rule="evenodd" d="M15.2756 3.66984C13.6736 5.32247 12.3317 6.73132 12.2937 6.8007C12.2332 6.911 12.4428 7.15257 13.9761 8.73956C14.9395 9.73665 15.7277 10.5824 15.7277 10.6191C15.7277 10.7059 9.70563 16.9351 9.62176 16.9351C9.58661 16.9351 8.76923 16.1197 7.80537 15.1231C6.27128 13.5369 6.03776 13.32 5.93114 13.3827C5.86407 13.422 4.50218 14.8101 2.90464 16.4674L0 19.4805L1.80567 21.3493L3.61127 23.2181L2.41686 24.455L1.22239 25.692L3.01481 27.5463L4.80723 29.4005L6.00299 28.1648L7.1987 26.9292L9.0052 28.7971L10.8117 30.665L13.7244 27.6602C15.3264 26.0076 16.6683 24.5988 16.7063 24.5294C16.7668 24.4191 16.5572 24.1775 15.0239 22.5905C14.0605 21.5934 13.2723 20.7477 13.2723 20.711C13.2723 20.6242 19.2944 14.395 19.3782 14.395C19.4134 14.395 20.2308 15.2104 21.1946 16.207C22.7287 17.7932 22.9622 18.01 23.0689 17.9474C23.1359 17.9081 24.4978 16.52 26.0954 14.8627L29 11.8496L27.1943 9.98077L25.3887 8.11197L26.5831 6.87503L27.7776 5.63803L25.9852 3.78381L24.1928 1.92958L22.997 3.16524L21.8013 4.40083L19.9948 2.53297L18.1883 0.665039L15.2756 3.66984ZM22.383 7.5436L26.5504 11.855L24.7574 13.7098L22.9645 15.5646L18.7809 11.2367L14.5974 6.90899L15.1949 6.29082L15.7925 5.67273L18.7812 8.76395L21.7699 11.8552L22.3673 11.2371L22.9648 10.6191L19.977 7.52782L16.9893 4.43653L17.5687 3.83434C17.8873 3.5032 18.1633 3.23222 18.1819 3.23222C18.2005 3.23222 20.091 5.17234 22.383 7.5436ZM24.8065 5.03745L25.3858 5.63951L24.789 6.25687L24.1923 6.87423L23.5955 6.25687L22.9987 5.63951L23.578 5.03745C23.8966 4.70631 24.173 4.43539 24.1923 4.43539C24.2115 4.43539 24.4879 4.70631 24.8065 5.03745ZM15.0989 16.2821L12.0138 19.4741L11.4148 18.8571L10.8159 18.2401L13.9011 15.048L16.9862 11.856L17.5852 12.473L18.1841 13.09L15.0989 16.2821ZM10.2354 20.1101L14.4028 24.4216L12.6098 26.2763L10.8169 28.1311L6.63331 23.8033L2.44981 19.4755L3.04731 18.8573L3.64487 18.2392L6.63357 21.3305L9.62228 24.4217L10.2197 23.8037L10.8171 23.1856L7.8294 20.0943L4.84167 17.003L5.42107 16.4008C5.73969 16.0697 6.01566 15.7987 6.03427 15.7987C6.05288 15.7987 7.94338 17.7388 10.2354 20.1101ZM5.42204 25.0904L6.00131 25.6924L5.40453 26.3098L4.80775 26.9272L4.21096 26.3098L3.61418 25.6924L4.19345 25.0904C4.51207 24.7592 4.78849 24.4883 4.80775 24.4883C4.827 24.4883 5.10342 24.7592 5.42204 25.0904Z" fill="#E63E1F"/>
</svg>
