<svg width="29" height="29" viewBox="0 0 29 29" fill="none" xmlns="http://www.w3.org/2000/svg">
<path fill-rule="evenodd" clip-rule="evenodd" d="M13.3238 0.686761C11.6543 0.876763 10.6171 1.10401 9.37895 1.55125C7.4046 2.26444 5.68472 3.34617 4.17275 4.8258C1.96721 6.98425 0.612848 9.586 0.122194 12.6069C-0.0407312 13.61 -0.0407312 15.7357 0.122194 16.7388C0.602799 19.6979 1.92539 22.2777 4.05067 24.4014C6.29421 26.6433 9.12967 28.0595 12.3513 28.5474C13.3792 28.7031 15.586 28.7045 16.6302 28.5501C19.8135 28.0796 22.6874 26.6432 24.9308 24.4014C27.6835 21.6509 29.1323 18.0222 28.9905 14.2346C28.9126 12.1559 28.4758 10.4038 27.5939 8.63161C25.5287 4.48186 21.4893 1.5562 16.8247 0.831625C16.0501 0.711301 13.8927 0.622028 13.3238 0.686761ZM15.5605 2.34094C16.2796 2.40786 17.6398 2.63924 17.8084 2.72332C17.8681 2.75306 17.9596 2.91138 18.0116 3.07515C18.0638 3.23893 18.3737 4.16959 18.7005 5.14339L19.2945 6.91383L18.0434 8.5695L16.7923 10.2252L14.4908 10.2243L12.1892 10.2234L10.9574 8.56694C10.2799 7.6558 9.72925 6.88916 9.73372 6.86324C9.73826 6.83732 10.0521 5.89533 10.4312 4.7699C10.943 3.25026 11.1495 2.71537 11.2334 2.69121C11.2955 2.67336 11.6724 2.59937 12.0709 2.52687C13.3676 2.29092 14.4205 2.23482 15.5605 2.34094ZM8.59869 4.87539L8.15576 6.19006L6.68768 6.2069C5.88032 6.21617 5.21967 6.20121 5.21967 6.1736C5.21967 6.02097 6.57747 4.89598 7.40097 4.36636C8.04236 3.95386 9.00467 3.4514 9.02704 3.51745C9.03508 3.54124 8.84233 4.15231 8.59869 4.87539ZM21.6041 4.38157C22.2809 4.82399 23.0926 5.46699 23.5646 5.93489L23.8537 6.22137H22.3543H20.8549L20.7245 5.83009C20.6527 5.61492 20.462 5.04285 20.3006 4.55892C20.1392 4.07494 19.9873 3.62901 19.963 3.56785C19.8999 3.40908 20.7962 3.85351 21.6041 4.38157ZM9.55439 9.50568C10.2369 10.4168 10.7953 11.1937 10.7953 11.2322C10.7953 11.2706 10.5004 12.1802 10.1399 13.2535C9.77936 14.3269 9.47108 15.2491 9.45468 15.303C9.43666 15.3624 9.20274 15.4692 8.86204 15.5738C8.55253 15.6688 7.67197 15.9434 6.90532 16.1841C6.13868 16.4247 5.47777 16.632 5.4366 16.6446C5.3955 16.6573 4.54943 16.0964 3.55645 15.3983L1.75112 14.129L1.76376 13.5401C1.77893 12.8339 2.01758 11.6645 2.33559 10.7382C2.56957 10.0567 3.23721 8.67994 3.5925 8.14643L3.7905 7.84906H6.052H8.31349L9.55439 9.50568ZM25.5185 8.3601C26.4819 9.95292 27.0888 11.7771 27.2515 13.5693L27.3014 14.1183L25.4606 15.4058L23.6199 16.6933L21.5881 16.0466C20.2218 15.6117 19.5466 15.368 19.5266 15.3024C19.5104 15.2488 19.2022 14.3269 18.8416 13.2535C18.4812 12.1802 18.1862 11.2712 18.1862 11.2335C18.1862 11.1734 19.2757 9.70213 20.3101 8.36554L20.6614 7.91167H22.9543H25.2473L25.5185 8.3601ZM16.7656 12.4191C16.8638 12.7118 17.1576 13.5803 17.4184 14.3491C17.8176 15.5256 17.8774 15.7552 17.7963 15.7995C17.7434 15.8283 17.4666 16.018 17.1813 16.2208C16.8961 16.4236 16.1743 16.9334 15.5776 17.3536L14.4924 18.1175L12.9194 17.0132C12.0542 16.4058 11.2924 15.8596 11.2264 15.7994C11.1102 15.6932 11.1208 15.6478 11.5722 14.3205C11.8283 13.5675 12.1123 12.7259 12.2033 12.4504C12.2942 12.175 12.3813 11.9281 12.3968 11.9018C12.4122 11.8755 13.3614 11.8614 14.506 11.8705L16.5871 11.887L16.7656 12.4191ZM3.01231 17.0566C3.65584 17.5067 4.18235 17.8914 4.18235 17.9114C4.18235 17.9952 3.32318 20.5306 3.27968 20.5751C3.20992 20.6464 2.60633 19.3834 2.33306 18.5943C2.05914 17.8036 1.71358 16.238 1.8129 16.238C1.82911 16.238 2.36884 16.6063 3.01231 17.0566ZM27.0655 17.0308C26.9868 17.4383 26.8098 18.1061 26.672 18.5147C26.4286 19.2367 25.7952 20.6202 25.7082 20.6202C25.6844 20.6202 25.4645 20.014 25.2194 19.273C24.786 17.9625 24.7773 17.9234 24.9 17.838C24.9694 17.7897 25.5075 17.4128 26.0958 17.0004C26.6842 16.588 27.1752 16.2594 27.1871 16.2703C27.199 16.2811 27.1442 16.6233 27.0655 17.0308ZM11.8002 18.2609L13.6155 19.5325L13.6326 21.5982L13.6496 23.6639L13.2112 23.9769C12.97 24.1491 12.1401 24.7331 11.3669 25.2747L9.96109 26.2596L9.5516 26.0933C7.77188 25.3706 6.17077 24.2629 4.89084 22.8689L4.48557 22.4274L4.59883 22.0716C4.66114 21.8759 4.97519 20.9348 5.29669 19.9803C5.86891 18.2814 5.88557 18.2433 6.08532 18.1744C6.67783 17.9703 9.80445 17.0008 9.88763 16.9955C9.94112 16.992 10.8018 17.5615 11.8002 18.2609ZM21.2045 17.6587L23.0882 18.2592L23.7888 20.3525L24.4895 22.4456L24.3053 22.6441C23.0419 24.0063 21.9002 24.8884 20.4539 25.6196C20.0447 25.8265 19.5539 26.0546 19.3634 26.1265L19.0171 26.2573L17.6129 25.2735C16.8407 24.7325 16.0115 24.1491 15.7704 23.9769L15.3319 23.6639L15.349 21.5989L15.366 19.5339L17.1813 18.2601C18.6932 17.1991 19.0237 16.9922 19.1587 17.0221C19.2479 17.0419 20.1685 17.3284 21.2045 17.6587ZM15.6931 25.9571C16.3768 26.4345 16.8483 26.8033 16.8042 26.8261C16.3001 27.0873 12.6815 27.0874 12.1775 26.8262C12.1335 26.8034 12.602 26.435 13.2796 25.9594C13.9279 25.5046 14.4689 25.1313 14.4818 25.13C14.4948 25.1287 15.0398 25.5009 15.6931 25.9571Z" fill="#E63E1F"/>
</svg>
