<svg width="28" height="29" viewBox="0 0 28 29" fill="none" xmlns="http://www.w3.org/2000/svg">
<path fill-rule="evenodd" clip-rule="evenodd" d="M8.125 0.732106C6.13875 1.15044 4.62344 2.65156 4.224 4.59653C4.16956 4.86168 4.125 5.19244 4.125 5.33149V5.58431H2.0625H0V17.1247V28.665H14H28V22.0661V15.4671H23.0625H18.125V10.5257V5.58431H16.0715H14.0179L13.9784 5.1621C13.9203 4.54174 13.7176 3.88034 13.3897 3.24115C12.9798 2.44227 12.2021 1.6639 11.4038 1.25371C11.0931 1.09408 10.6291 0.903241 10.3726 0.82962C9.77687 0.658735 8.696 0.611823 8.125 0.732106ZM9.55837 2.33543C11.0242 2.57343 12.1475 3.75387 12.3377 5.25593L12.3793 5.58431H9.06081H5.74231L5.78231 5.2872C5.95581 3.99844 6.69175 3.00152 7.80356 2.54942C8.43006 2.29465 8.93094 2.23354 9.55837 2.33543ZM4.11025 9.29036L4.12669 11.3389H4.9375H5.74831L5.76475 9.29036L5.78125 7.24187H9.0625H12.3438L12.3603 9.29036L12.3767 11.3389H13.1884H14V9.27473V7.2106H15.2188H16.4375V11.3389V15.4671H15.625H14.8125V16.7181V17.9691H13.5389H12.2652L12.1241 17.5914C11.7878 16.6915 11.0299 15.9715 10.0744 15.6444C9.48931 15.4442 8.63569 15.4442 8.05062 15.6444C7.56294 15.8114 7.0025 16.1629 6.67581 16.5068C6.38756 16.8102 6.01731 17.4223 5.93338 17.7341L5.86975 17.9708L3.763 17.9543L1.65625 17.9378L1.64013 12.6524C1.63125 9.74541 1.63762 7.33119 1.65431 7.28741C1.67769 7.22605 1.95963 7.21179 2.88919 7.22486L4.09375 7.24187L4.11025 9.29036ZM9.79888 17.3173C10.3466 17.5904 10.6875 18.136 10.6875 18.7396C10.6875 19.412 10.3742 19.9301 9.79144 20.2215C9.2755 20.4796 8.84806 20.4788 8.32844 20.219C7.73194 19.9206 7.43613 19.4247 7.43888 18.7274C7.44238 17.8314 8.14025 17.156 9.0625 17.156C9.38106 17.156 9.54938 17.1928 9.79888 17.3173ZM26.375 20.4402V23.7244L21.4219 23.7084L16.4688 23.6924L16.4525 20.5023C16.4436 18.7478 16.4497 17.2772 16.4661 17.2341C16.4897 17.1725 17.5416 17.156 21.4356 17.156H26.375V20.4402ZM18.125 18.988C18.125 19.1012 18.1669 19.3547 18.2181 19.5514C18.7736 21.686 21.1149 22.6934 23.0379 21.6252C23.9411 21.1235 24.6799 19.9543 24.686 19.0168L24.6875 18.7822H23.875C23.2441 18.7822 23.0625 18.8007 23.0625 18.8647C23.0625 19.1043 22.8498 19.6023 22.6455 19.8412C21.7402 20.8997 20.0403 20.4094 19.787 19.0168L19.7443 18.7822H18.9347H18.125V18.988ZM5.93913 19.8299C5.97975 19.959 6.12187 20.2513 6.25506 20.4796C7.20456 22.1076 9.41113 22.5553 10.9764 21.4375C11.4549 21.0957 11.9337 20.4807 12.1306 19.955L12.2652 19.5954H13.5389H14.8125V21.6595V23.7236H8.21875H1.625V21.6595V19.5954H3.74512H5.86531L5.93913 19.8299ZM14.8125 26.1947V27.0393L8.23438 27.0234L1.65625 27.0075L1.63856 26.2605C1.62881 25.8497 1.63494 25.4768 1.65219 25.4317C1.67775 25.3651 2.89831 25.3499 8.24806 25.3499H14.8125V26.1947ZM26.3438 26.1943V27.0075H21.4062H16.4688L16.4511 26.2605C16.4413 25.8497 16.4475 25.4766 16.4649 25.4314C16.4906 25.3642 17.3991 25.3521 21.4201 25.3652L26.3438 25.3812V26.1943Z" fill="#E63E1F"/>
</svg>
