<svg width="29" height="30" viewBox="0 0 29 30" fill="none" xmlns="http://www.w3.org/2000/svg">
<path fill-rule="evenodd" clip-rule="evenodd" d="M13.6584 3.52944L13.6582 6.39383L12.8798 7.31627L12.1014 8.2387L8.00879 8.23967C5.75792 8.24025 3.88309 8.26207 3.84244 8.28822C3.80178 8.31437 2.92065 9.39682 1.88429 10.6937L0 13.0515V14.2378V15.424H0.776786H1.55357V21.703V27.982H0.776786H0V28.8235V29.665H14.5H29V28.8235V27.982H28.2232H27.4464V21.703V15.424H28.2232H29V14.2378V13.0515L27.1157 10.6937C26.0793 9.39682 25.1982 8.31437 25.1576 8.28822C25.1169 8.26207 23.2421 8.24025 20.9912 8.23967L16.8986 8.2387L16.1202 7.31627L15.3418 6.39383L15.3416 5.89216L15.3415 5.39049H17.8013H20.2612V3.02776V0.665039H16.9598H13.6585L13.6584 3.52944ZM18.5458 3.02776V3.67508L16.9436 3.69237L15.3415 3.70972V3.02776V2.34581L16.9436 2.36316L18.5458 2.38044V3.02776ZM17.6075 11.7223L20.6826 15.3916L23.1906 15.4086L25.6987 15.4255V21.7038V27.982H22.3326H18.9665V24.1628V20.3436H14.5H10.0335V24.1628V27.982H6.66741H3.30134V21.7038V15.4255L5.80939 15.4086L8.31743 15.3916L11.3925 11.7223C13.0839 9.70424 14.4822 8.05305 14.5 8.05305C14.5178 8.05305 15.9161 9.70424 17.6075 11.7223ZM10.5075 10.1353C10.3979 10.2736 7.95921 13.1901 7.67076 13.5278L7.54129 13.6794L4.62466 13.6616L1.70802 13.6438L3.1665 11.8152L4.62498 9.98647H7.62525H10.6255L10.5075 10.1353ZM25.8335 11.8152L27.292 13.6438L24.3753 13.6616L21.4587 13.6794L21.3292 13.5278C21.0408 13.1901 18.6021 10.2736 18.4925 10.1353L18.3745 9.98647H21.3747H24.375L25.8335 11.8152ZM13.7999 12.6121C11.8588 13.1345 11.2057 15.6067 12.632 17.033C14.1494 18.5505 16.7436 17.7148 17.1073 15.5915C17.4298 13.7083 15.6579 12.1121 13.7999 12.6121ZM14.8033 14.2629C15.2365 14.4266 15.5221 14.9049 15.4419 15.3325C15.3873 15.6232 15.0716 15.9787 14.7839 16.0737C14.1392 16.2865 13.4324 15.6681 13.5576 15.0009C13.6328 14.6 14.0871 14.2036 14.4796 14.1966C14.5574 14.1952 14.7031 14.2251 14.8033 14.2629ZM5.76116 19.405V20.6025H6.60268H7.4442V19.405V18.2074H6.60268H5.76116V19.405ZM21.5558 19.405V20.6025H22.3973H23.2388V19.405V18.2074H22.3973H21.5558V19.405ZM13.6585 25.0367V27.982H12.6875H11.7165V25.0367V22.0914H12.6875H13.6585V25.0367ZM17.2835 25.0367V27.982H16.3125H15.3415V25.0367V22.0914H16.3125H17.2835V25.0367ZM5.79068 23.0789C5.77268 23.1257 5.76595 23.6727 5.77573 24.2945L5.79353 25.4251H6.63504H7.47656V24.2275V23.03L6.64993 23.0119C6.01342 22.9979 5.81579 23.0133 5.79068 23.0789ZM21.5206 23.0789C21.5026 23.1257 21.4959 23.6727 21.5056 24.2945L21.5234 25.4251H22.365H23.2065V24.2275V23.03L22.3798 23.0119C21.7433 22.9979 21.5457 23.0133 21.5206 23.0789Z" fill="#E63E1F"/>
</svg>
