<svg width="32" height="30" viewBox="0 0 32 30" fill="none" xmlns="http://www.w3.org/2000/svg">
<path fill-rule="evenodd" clip-rule="evenodd" d="M6.46613 1.03875C6.67231 2.76269 7.56861 4.04067 9.11005 4.80875L9.57031 5.03807L9.12427 5.30682C6.63779 6.80484 4.70099 9.08829 3.64196 11.7704L3.38081 12.4316L2.77769 12.6567C1.79377 13.0238 1.08301 13.6071 0.566651 14.471C-0.790401 16.7416 0.397342 19.6959 2.98623 20.4892L3.37324 20.6077L3.60022 21.2021C5.88558 27.1863 12.3091 30.683 18.6622 29.4014C22.0035 28.7274 24.915 26.8151 26.9539 23.9553C27.3872 23.3476 28.041 22.1151 28.3712 21.2836L28.6369 20.6147L29.1613 20.4398C29.7949 20.2286 30.5434 19.7495 30.9436 19.2993C32.1383 17.9551 32.3418 15.9785 31.4408 14.471C30.9244 13.6071 30.2137 13.0238 29.2298 12.6567L28.6266 12.4316L28.3655 11.7704C27.2115 8.84778 25.0692 6.46319 22.2215 4.93155C20.4829 3.99643 18.2732 3.43155 16.3408 3.42815C15.299 3.42631 14.6738 3.33281 14.1913 3.10653C13.4089 2.73969 12.7821 1.8883 12.6761 1.04873L12.6282 0.669215H11.697H10.7658L10.8077 1.18236C10.8576 1.79494 11.0641 2.42197 11.3953 2.96668C11.5927 3.29141 11.6179 3.37316 11.5306 3.40635C11.3284 3.48322 10.3014 3.30528 9.90164 3.12402C9.12742 2.77303 8.49477 1.93183 8.37478 1.09388L8.31903 0.704604L7.37021 0.684857L6.42139 0.665039L6.46613 1.03875ZM17.0284 5.44356C18.5211 5.96527 19.3671 7.53386 18.97 9.0437C18.813 9.641 18.6071 9.9934 18.1567 10.4362C17.6935 10.8917 17.1404 11.1738 16.4712 11.2959C15.5648 11.4613 14.5568 11.1313 13.8551 10.4394C13.3845 9.97549 13.0932 9.42144 12.9822 8.77948L12.9015 8.31327H11.987H11.0724V8.60013C11.0724 8.96535 11.2651 9.80838 11.4419 10.2169C12.0496 11.621 13.5082 12.7924 15.018 13.0888C17.6594 13.6074 20.2653 11.9299 20.8317 9.34642C21.0024 8.5675 20.9472 7.48169 20.6999 6.75614C20.6005 6.46418 20.5289 6.21533 20.5411 6.20308C20.5888 6.15488 21.6504 6.72741 22.293 7.1479C23.9766 8.24964 25.2708 9.70073 26.2047 11.5337C26.4996 12.1125 27.1529 13.9103 27.1529 14.1431C27.1529 14.2138 27.3172 14.2483 27.7782 14.2745C28.5773 14.3198 29.0367 14.509 29.4753 14.9734C29.938 15.4634 30.1053 15.8718 30.11 16.5235C30.1146 17.1603 29.9049 17.6765 29.4675 18.1054C29.0047 18.5594 28.5704 18.7404 27.8371 18.785L27.199 18.8238L26.939 19.6732C26.4575 21.2462 25.759 22.548 24.7574 23.7399C21.5557 27.5494 16.2441 28.8377 11.6052 26.9297C10.236 26.3665 9.11905 25.6211 7.99635 24.5215C6.53467 23.0897 5.68533 21.6832 5.06891 19.6732L4.8084 18.8238L4.1704 18.785C3.43706 18.7404 3.00274 18.5594 2.53991 18.1054C2.10488 17.6787 1.89347 17.1605 1.89469 16.5235C1.8959 15.8727 2.05957 15.4738 2.5294 14.9763C2.97101 14.5088 3.42848 14.3199 4.22922 14.2745C4.65818 14.2501 4.85457 14.2116 4.85457 14.1517C4.85457 14.1036 4.98693 13.6542 5.14881 13.1529C6.53302 8.86463 10.1703 5.89746 14.753 5.31814C14.8709 5.30321 15.3212 5.28693 15.7536 5.2819C16.4172 5.27419 16.6159 5.29939 17.0284 5.44356ZM10.0003 13.9117C8.79065 14.1456 7.69525 15.2972 7.59012 16.4453L7.55052 16.8774H8.48955C9.4278 16.8774 9.42859 16.8773 9.42859 16.711C9.42859 16.3465 9.9185 15.8511 10.3809 15.7477C10.929 15.6254 11.6457 16.0142 11.7524 16.492C11.7781 16.6066 11.8114 16.7403 11.8265 16.789C11.8467 16.8539 12.1045 16.8774 12.7946 16.8774H13.7352L13.6888 16.5058C13.6193 15.9485 13.1446 15.0429 12.7272 14.6712C11.9754 14.0018 10.975 13.7231 10.0003 13.9117ZM20.6221 13.9465C20.1055 14.0703 19.467 14.4457 19.1131 14.8337C18.7711 15.2086 18.3814 16.0305 18.3202 16.5058L18.2723 16.8774H19.2129C19.903 16.8774 20.1607 16.8539 20.1809 16.789C20.1961 16.7403 20.2294 16.6066 20.2551 16.492C20.3618 16.0142 21.0784 15.6254 21.6265 15.7477C22.0889 15.8511 22.5789 16.3465 22.5789 16.711C22.5789 16.8773 22.5797 16.8774 23.5179 16.8774H24.4569L24.4173 16.4453C24.3102 15.2755 23.2117 14.1351 21.9761 13.9109C21.4374 13.8132 21.1464 13.8208 20.6221 13.9465ZM12.3516 21.1337C11.9429 21.3682 11.5839 21.5833 11.554 21.6119C11.4599 21.7014 11.9195 22.3036 12.4714 22.8141C13.4175 23.6891 14.7145 24.1881 16.0311 24.1837C17.3258 24.1793 18.597 23.6826 19.536 22.8141C20.088 22.3036 20.5475 21.7014 20.4535 21.6119C20.4236 21.5833 20.0646 21.3682 19.6559 21.1337L18.9127 20.7074L18.7206 20.9688C18.4025 21.4019 17.9465 21.7619 17.3709 22.0341C16.8414 22.2845 16.8018 22.292 16.0037 22.292C15.2057 22.292 15.166 22.2845 14.6366 22.0341C14.061 21.7619 13.6049 21.4019 13.2868 20.9688L13.0948 20.7074L12.3516 21.1337Z" fill="#E63E1F"/>
</svg>
