<svg width="76" height="86" viewBox="0 0 76 86" fill="none" xmlns="http://www.w3.org/2000/svg">
<path d="M-1.12 64.6C-1.12 71.2017 0.514095 76.8271 3.95623 80.8187C7.4224 84.8381 12.583 87.04 19.28 87.04V84.64C13.137 84.64 8.6976 82.6419 5.77377 79.2513C2.82591 75.8329 1.28 70.8383 1.28 64.6H-1.12ZM19.28 87.04C26.0335 87.04 31.2244 84.8404 34.707 80.8208C38.1659 76.8284 39.8 71.2016 39.8 64.6H37.4C37.4 70.8384 35.8541 75.8316 32.8931 79.2492C29.9557 82.6396 25.4865 84.64 19.28 84.64V87.04ZM39.8 64.6V21.28H37.4V64.6H39.8ZM39.8 21.28C39.8 14.6783 38.1658 9.0791 34.7038 5.11558C31.219 1.126 26.0281 -1.04 19.28 -1.04V1.36C25.4919 1.36 29.961 3.334 32.8962 6.69442C35.8542 10.0809 37.4 15.0417 37.4 21.28H39.8ZM19.28 -1.04C12.5885 -1.04 7.42777 1.12823 3.95939 5.11767C0.514194 9.08046 -1.12 14.6782 -1.12 21.28H1.28C1.28 15.0417 2.82581 10.0795 5.77061 6.69232C8.69223 3.33177 13.1315 1.36 19.28 1.36V-1.04ZM-1.12 21.28V64.6H1.28V21.28H-1.12ZM10.52 20.8C10.52 17.1021 11.304 14.3482 12.7236 12.5414C14.1047 10.7836 16.2157 9.76 19.28 9.76V7.36C15.6243 7.36 12.7553 8.61643 10.8364 11.0586C8.95605 13.4518 8.12 16.8179 8.12 20.8H10.52ZM19.28 9.76C22.41 9.76 24.5156 10.7871 25.8781 12.5372C27.2823 14.3407 28.04 17.093 28.04 20.8H30.44C30.44 16.827 29.6377 13.4593 27.7719 11.0628C25.8645 8.61292 22.99 7.36 19.28 7.36V9.76ZM28.04 20.8V65.2H30.44V20.8H28.04ZM28.04 65.2C28.04 68.8434 27.2838 71.5653 25.8807 73.3545C24.5179 75.0924 22.4105 76.12 19.28 76.12V78.52C22.9895 78.52 25.8621 77.2676 27.7693 74.8355C29.6362 72.4547 30.44 69.1166 30.44 65.2H28.04ZM19.28 76.12C16.2152 76.12 14.1024 75.0959 12.721 73.3503C11.3024 71.5578 10.52 68.8342 10.52 65.2H8.12C8.12 69.1258 8.95759 72.4622 10.839 74.8397C12.7576 77.2641 15.6248 78.52 19.28 78.52V76.12ZM10.52 65.2V20.8H8.12V65.2H10.52ZM65.8006 85H64.6006V86.2H65.8006V85ZM75.0406 85V86.2H76.2406V85H75.0406ZM75.0406 0.999994H76.2406V-0.200006H75.0406V0.999994ZM68.5606 0.999994V-0.200006H67.723L67.4342 0.586214L68.5606 0.999994ZM54.1606 12.16L54.1133 10.9609L52.9606 11.0064V12.16H54.1606ZM54.1606 19.84H52.9606V21.1066L54.2254 21.0382L54.1606 19.84ZM65.8006 16.24H67.0006V14.0925L65.1717 15.218L65.8006 16.24ZM65.8006 86.2H75.0406V83.8H65.8006V86.2ZM76.2406 85V0.999994H73.8406V85H76.2406ZM75.0406 -0.200006H68.5606V2.19999H75.0406V-0.200006ZM67.4342 0.586214C66.3738 3.47286 65.1345 5.95298 63.1592 7.76591C61.217 9.54851 58.4462 10.7899 54.1133 10.9609L54.208 13.3591C58.9951 13.1701 62.3443 11.7715 64.782 9.53408C67.1868 7.32701 68.5874 4.40713 69.687 1.41377L67.4342 0.586214ZM52.9606 12.16V19.84H55.3606V12.16H52.9606ZM54.2254 21.0382C58.8773 20.7868 63.1497 19.2803 66.4295 17.262L65.1717 15.218C62.2115 17.0397 58.324 18.4132 54.0959 18.6417L54.2254 21.0382ZM64.6006 16.24V85H67.0006V16.24H64.6006Z" fill="white"/>
</svg>
