<svg width="87" height="86" viewBox="0 0 87 86" fill="none" xmlns="http://www.w3.org/2000/svg">
<path d="M-1.12 64.6C-1.12 71.2017 0.514095 76.8271 3.95623 80.8187C7.4224 84.8381 12.583 87.04 19.28 87.04V84.64C13.137 84.64 8.6976 82.6419 5.77377 79.2513C2.82591 75.8329 1.28 70.8383 1.28 64.6H-1.12ZM19.28 87.04C26.0335 87.04 31.2244 84.8404 34.707 80.8208C38.1659 76.8284 39.8 71.2016 39.8 64.6H37.4C37.4 70.8384 35.8541 75.8316 32.8931 79.2492C29.9557 82.6396 25.4865 84.64 19.28 84.64V87.04ZM39.8 64.6V21.28H37.4V64.6H39.8ZM39.8 21.28C39.8 14.6783 38.1658 9.0791 34.7038 5.11558C31.219 1.126 26.0281 -1.04 19.28 -1.04V1.36C25.4919 1.36 29.961 3.334 32.8962 6.69442C35.8542 10.0809 37.4 15.0417 37.4 21.28H39.8ZM19.28 -1.04C12.5885 -1.04 7.42777 1.12823 3.95939 5.11767C0.514194 9.08046 -1.12 14.6782 -1.12 21.28H1.28C1.28 15.0417 2.82581 10.0795 5.77061 6.69232C8.69223 3.33177 13.1315 1.36 19.28 1.36V-1.04ZM-1.12 21.28V64.6H1.28V21.28H-1.12ZM10.52 20.8C10.52 17.1021 11.304 14.3482 12.7236 12.5414C14.1047 10.7836 16.2157 9.76 19.28 9.76V7.36C15.6243 7.36 12.7553 8.61643 10.8364 11.0586C8.95605 13.4518 8.12 16.8179 8.12 20.8H10.52ZM19.28 9.76C22.41 9.76 24.5156 10.7871 25.8781 12.5372C27.2823 14.3407 28.04 17.093 28.04 20.8H30.44C30.44 16.827 29.6377 13.4593 27.7719 11.0628C25.8645 8.61292 22.99 7.36 19.28 7.36V9.76ZM28.04 20.8V65.2H30.44V20.8H28.04ZM28.04 65.2C28.04 68.8434 27.2838 71.5653 25.8807 73.3545C24.5179 75.0924 22.4105 76.12 19.28 76.12V78.52C22.9895 78.52 25.8621 77.2676 27.7693 74.8355C29.6362 72.4547 30.44 69.1166 30.44 65.2H28.04ZM19.28 76.12C16.2152 76.12 14.1024 75.0959 12.721 73.3503C11.3024 71.5578 10.52 68.8342 10.52 65.2H8.12C8.12 69.1258 8.95759 72.4622 10.839 74.8397C12.7576 77.2641 15.6248 78.52 19.28 78.52V76.12ZM10.52 65.2V20.8H8.12V65.2H10.52ZM48.6406 28.36H47.4406V29.56H48.6406V28.36ZM57.4006 28.36V29.56H58.6006V28.36H57.4006ZM48.6406 85H47.4406V86.2H48.6406V85ZM85.4806 85V86.2H86.6806V85H85.4806ZM85.4806 76.48H86.6806V75.28H85.4806V76.48ZM57.8806 76.48H56.6806V77.68H57.8806V76.48ZM57.8806 75.16L56.6806 75.1525V75.16H57.8806ZM67.4806 -1.04C60.7193 -1.04 55.6385 1.1957 52.276 5.26007C48.945 9.28644 47.4406 14.9389 47.4406 21.52H49.8406C49.8406 15.2611 51.2763 10.2336 54.1252 6.78993C56.9427 3.3843 61.282 1.36 67.4806 1.36V-1.04ZM47.4406 21.52V28.36H49.8406V21.52H47.4406ZM48.6406 29.56H57.4006V27.16H48.6406V29.56ZM58.6006 28.36V20.92H56.2006V28.36H58.6006ZM58.6006 20.92C58.6006 17.3325 59.3285 14.5368 60.7188 12.6657C62.0654 10.8536 64.143 9.76 67.2406 9.76V7.36C63.4982 7.36 60.6559 8.72644 58.7924 11.2343C56.9728 13.6832 56.2006 17.0675 56.2006 20.92H58.6006ZM67.2406 9.76C70.4307 9.76 72.4815 10.7847 73.795 12.6187C75.1676 14.5352 75.8806 17.5309 75.8806 21.76H78.2806C78.2806 17.3491 77.5536 13.7448 75.7462 11.2213C73.8797 8.61525 71.0106 7.36 67.2406 7.36V9.76ZM75.8806 21.76C75.8806 33.0341 69.1544 39.9254 61.9808 47.6589C54.8637 55.3316 47.4406 63.7359 47.4406 77.8H49.8406C49.8406 64.7441 56.6375 56.9484 63.7404 49.2911C70.7868 41.6946 78.2806 34.1259 78.2806 21.76H75.8806ZM47.4406 77.8V85H49.8406V77.8H47.4406ZM48.6406 86.2H85.4806V83.8H48.6406V86.2ZM86.6806 85V76.48H84.2806V85H86.6806ZM85.4806 75.28H57.8806V77.68H85.4806V75.28ZM59.0806 76.48V75.16H56.6806V76.48H59.0806ZM59.0806 75.1674C59.1086 70.6535 60.785 66.691 63.3878 62.8422C66.0099 58.9649 69.4969 55.3049 73.0947 51.3359C80.2196 43.476 87.6406 34.5607 87.6406 21.4H85.2406C85.2406 33.5593 78.4416 41.864 71.3166 49.7241C67.7893 53.6151 64.1438 57.4401 61.3997 61.4978C58.6363 65.584 56.7126 70.0065 56.6806 75.1525L59.0806 75.1674ZM87.6406 21.4C87.6406 14.819 86.1363 9.19266 82.7854 5.19421C79.4041 1.15959 74.2929 -1.04 67.4806 -1.04V1.36C73.7483 1.36 78.1171 3.3604 80.9459 6.73578C83.805 10.1473 85.2406 15.141 85.2406 21.4H87.6406Z" fill="white"/>
</svg>
