<svg width="86" height="86" viewBox="0 0 86 86" fill="none" xmlns="http://www.w3.org/2000/svg">
<path d="M-1.12 64.6C-1.12 71.2017 0.514095 76.8271 3.95623 80.8187C7.4224 84.8381 12.583 87.04 19.28 87.04V84.64C13.137 84.64 8.6976 82.6419 5.77377 79.2513C2.82591 75.8329 1.28 70.8383 1.28 64.6H-1.12ZM19.28 87.04C26.0335 87.04 31.2244 84.8404 34.707 80.8208C38.1659 76.8284 39.8 71.2016 39.8 64.6H37.4C37.4 70.8384 35.8541 75.8316 32.8931 79.2492C29.9557 82.6396 25.4865 84.64 19.28 84.64V87.04ZM39.8 64.6V21.28H37.4V64.6H39.8ZM39.8 21.28C39.8 14.6783 38.1658 9.0791 34.7038 5.11558C31.219 1.126 26.0281 -1.04 19.28 -1.04V1.36C25.4919 1.36 29.961 3.334 32.8962 6.69442C35.8542 10.0809 37.4 15.0417 37.4 21.28H39.8ZM19.28 -1.04C12.5885 -1.04 7.42777 1.12823 3.95939 5.11767C0.514194 9.08046 -1.12 14.6782 -1.12 21.28H1.28C1.28 15.0417 2.82581 10.0795 5.77061 6.69232C8.69223 3.33177 13.1315 1.36 19.28 1.36V-1.04ZM-1.12 21.28V64.6H1.28V21.28H-1.12ZM10.52 20.8C10.52 17.1021 11.304 14.3482 12.7236 12.5414C14.1047 10.7836 16.2157 9.76 19.28 9.76V7.36C15.6243 7.36 12.7553 8.61643 10.8364 11.0586C8.95605 13.4518 8.12 16.8179 8.12 20.8H10.52ZM19.28 9.76C22.41 9.76 24.5156 10.7871 25.8781 12.5372C27.2823 14.3407 28.04 17.093 28.04 20.8H30.44C30.44 16.827 29.6377 13.4593 27.7719 11.0628C25.8645 8.61292 22.99 7.36 19.28 7.36V9.76ZM28.04 20.8V65.2H30.44V20.8H28.04ZM28.04 65.2C28.04 68.8434 27.2838 71.5653 25.8807 73.3545C24.5179 75.0924 22.4105 76.12 19.28 76.12V78.52C22.9895 78.52 25.8621 77.2676 27.7693 74.8355C29.6362 72.4547 30.44 69.1166 30.44 65.2H28.04ZM19.28 76.12C16.2152 76.12 14.1024 75.0959 12.721 73.3503C11.3024 71.5578 10.52 68.8342 10.52 65.2H8.12C8.12 69.1258 8.95759 72.4622 10.839 74.8397C12.7576 77.2641 15.6248 78.52 19.28 78.52V76.12ZM10.52 65.2V20.8H8.12V65.2H10.52ZM48.1606 25.12H46.9606V26.32H48.1606V25.12ZM56.9206 25.12V26.32H58.1206V25.12H56.9206ZM66.5206 37V38.2H66.5437L66.5667 38.1991L66.5206 37ZM61.0006 37V35.8H59.8006V37H61.0006ZM61.0006 45.4H59.8006V46.6H61.0006V45.4ZM66.0406 45.4L66.0813 44.2007L66.061 44.2H66.0406V45.4ZM56.9206 58.84H58.1206V57.64H56.9206V58.84ZM48.1606 58.84V57.64H46.9606V58.84H48.1606ZM75.7606 40.72L75.3393 39.5964L72.3345 40.7232L75.3414 41.8444L75.7606 40.72ZM67.0006 -1.04C60.3074 -1.04 55.2291 1.12996 51.849 5.13054C48.4974 9.09739 46.9606 14.6937 46.9606 21.28H49.3606C49.3606 15.0263 50.8238 10.0626 53.6823 6.67946C56.5122 3.33004 60.8538 1.36 67.0006 1.36V-1.04ZM46.9606 21.28V25.12H49.3606V21.28H46.9606ZM48.1606 26.32H56.9206V23.92H48.1606V26.32ZM58.1206 25.12V20.8H55.7206V25.12H58.1206ZM58.1206 20.8C58.1206 17.1573 58.8766 14.3982 60.2733 12.5747C61.6289 10.8049 63.708 9.76 66.7606 9.76V7.36C63.0932 7.36 60.2524 8.65508 58.368 11.1153C56.5247 13.5218 55.7206 16.8827 55.7206 20.8H58.1206ZM66.7606 9.76C69.8959 9.76 71.9509 10.7588 73.2777 12.5693C74.6602 14.4557 75.4006 17.4186 75.4006 21.64H77.8006C77.8006 17.2214 77.0411 13.6443 75.2135 11.1506C73.3304 8.58116 70.4654 7.36 66.7606 7.36V9.76ZM75.4006 21.64V25.48H77.8006V21.64H75.4006ZM75.4006 25.48C75.4006 28.9374 74.4954 31.4389 73.0083 33.0926C71.5305 34.736 69.3451 35.6905 66.4745 35.8009L66.5667 38.1991C69.9361 38.0695 72.7907 36.924 74.7929 34.6974C76.7858 32.4811 77.8006 29.3426 77.8006 25.48H75.4006ZM66.5206 35.8H61.0006V38.2H66.5206V35.8ZM59.8006 37V45.4H62.2006V37H59.8006ZM61.0006 46.6H66.0406V44.2H61.0006V46.6ZM66 46.5993C69.3247 46.712 71.595 47.6852 73.0631 49.4043C74.5564 51.1528 75.4006 53.8811 75.4006 57.88H77.8006C77.8006 53.5989 76.9049 50.2072 74.8881 47.8457C72.8463 45.4548 69.8366 44.328 66.0813 44.2007L66 46.5993ZM75.4006 57.88V64.36H77.8006V57.88H75.4006ZM75.4006 64.36C75.4006 68.5186 74.6611 71.4509 73.2801 73.3225C71.9532 75.1206 69.8964 76.12 66.7606 76.12V78.52C70.4648 78.52 73.3281 77.2994 75.2112 74.7475C77.0401 72.2691 77.8006 68.7214 77.8006 64.36H75.4006ZM66.7606 76.12C63.6973 76.12 61.6191 75.0974 60.2682 73.3587C58.8767 71.5678 58.1206 68.8431 58.1206 65.2H55.7206C55.7206 69.1169 56.5245 72.4522 58.373 74.8313C60.2621 77.2626 63.104 78.52 66.7606 78.52V76.12ZM58.1206 65.2V58.84H55.7206V65.2H58.1206ZM56.9206 57.64H48.1606V60.04H56.9206V57.64ZM46.9606 58.84V64.6H49.3606V58.84H46.9606ZM46.9606 64.6C46.9606 71.1863 48.4974 76.8102 51.8459 80.8058C55.2237 84.8363 60.3019 87.04 67.0006 87.04V84.64C60.8594 84.64 56.5176 82.6437 53.6854 79.2642C50.8239 75.8498 49.3606 70.8537 49.3606 64.6H46.9606ZM67.0006 87.04C73.7559 87.04 78.8643 84.8387 82.2585 80.808C85.6239 76.8116 87.1606 71.1862 87.1606 64.6H84.7606C84.7606 70.8538 83.2974 75.8484 80.4227 79.262C77.577 82.6413 73.2054 84.64 67.0006 84.64V87.04ZM87.1606 64.6V58.12H84.7606V64.6H87.1606ZM87.1606 58.12C87.1606 53.7807 86.3559 49.8725 84.5624 46.6732C82.7566 43.4522 79.9826 41.0136 76.1799 39.5956L75.3414 41.8444C78.6186 43.0664 80.9446 45.1278 82.4689 47.8468C84.0054 50.5875 84.7606 54.0593 84.7606 58.12H87.1606ZM76.182 41.8436C83.5027 39.0983 87.1606 32.4222 87.1606 23.44H84.7606C84.7606 31.7378 81.4585 37.3017 75.3393 39.5964L76.182 41.8436ZM87.1606 23.44V21.28H84.7606V23.44H87.1606ZM87.1606 21.28C87.1606 14.6938 85.6239 9.09599 82.2554 5.12836C78.8589 1.12765 73.7503 -1.04 67.0006 -1.04V1.36C73.2109 1.36 77.5824 3.33235 80.4258 6.68163C83.2974 10.064 84.7606 15.0262 84.7606 21.28H87.1606Z" fill="white"/>
</svg>
