<svg width="90" height="86" viewBox="0 0 90 86" fill="none" xmlns="http://www.w3.org/2000/svg">
<path d="M0.0800002 64.6C0.0800002 77.44 6.44 85.84 19.28 85.84C32.24 85.84 38.6 77.44 38.6 64.6V21.28C38.6 8.44 32.24 0.159998 19.28 0.159998C6.44 0.159998 0.0800002 8.44 0.0800002 21.28V64.6ZM9.32 20.8C9.32 13.12 12.56 8.56 19.28 8.56C26.12 8.56 29.24 13.12 29.24 20.8V65.2C29.24 72.76 26.12 77.32 19.28 77.32C12.56 77.32 9.32 72.76 9.32 65.2V20.8ZM89.4406 68.08V59.56H82.7206V0.999994H72.5206L46.4806 59.56V68.08H73.6006V85H82.7206V68.08H89.4406ZM73.6006 18.52V59.56H55.1206L73.6006 18.52Z" fill="#D9D9D9"/>
</svg>
