<svg width="87" height="86" viewBox="0 0 87 86" fill="none" xmlns="http://www.w3.org/2000/svg">
<path d="M0.0800002 64.6C0.0800002 77.44 6.44 85.84 19.28 85.84C32.24 85.84 38.6 77.44 38.6 64.6V21.28C38.6 8.44 32.24 0.159998 19.28 0.159998C6.44 0.159998 0.0800002 8.44 0.0800002 21.28V64.6ZM9.32 20.8C9.32 13.12 12.56 8.56 19.28 8.56C26.12 8.56 29.24 13.12 29.24 20.8V65.2C29.24 72.76 26.12 77.32 19.28 77.32C12.56 77.32 9.32 72.76 9.32 65.2V20.8ZM59.3206 9.39999H84.0406V0.999994H50.9206L48.6406 47.68H57.4006V45.76C58.2406 39.64 61.7206 36.76 66.8806 36.76C73.6006 36.76 76.7206 41.32 76.7206 48.88V65.2C76.7206 72.76 73.6006 77.32 66.8806 77.32C60.1606 77.32 57.0406 72.76 57.0406 65.2V58.96H48.2806V64.6C48.2806 77.44 54.2806 85.84 67.1206 85.84C79.9606 85.84 86.0806 77.44 86.0806 64.6V48.16C86.0806 36.16 81.2806 28.24 70.4806 28.24C64.8406 28.24 60.6406 30.64 58.0006 35.2L59.3206 9.39999Z" fill="#D9D9D9"/>
</svg>
