<svg width="87" height="86" viewBox="0 0 87 86" fill="none" xmlns="http://www.w3.org/2000/svg">
<path d="M0.0800781 64.6C0.0800781 77.44 6.44008 85.84 19.2801 85.84C32.2401 85.84 38.6001 77.44 38.6001 64.6V21.28C38.6001 8.44004 32.2401 0.160034 19.2801 0.160034C6.44008 0.160034 0.0800781 8.44004 0.0800781 21.28V64.6ZM9.32008 20.8C9.32008 13.12 12.5601 8.56003 19.2801 8.56003C26.1201 8.56003 29.2401 13.12 29.2401 20.8V65.2C29.2401 72.76 26.1201 77.32 19.2801 77.32C12.5601 77.32 9.32008 72.76 9.32008 65.2V20.8Z" fill="#D9D9D9"/>
<path d="M67.3607 0.160034C54.0407 0.160034 48.0407 8.44003 48.0407 21.76V64.6C48.0407 77.44 54.4007 85.84 67.3607 85.84C80.2007 85.84 86.5607 77.44 86.5607 64.6V51.88C86.5607 39.76 81.7607 31.96 70.9607 31.96C64.2407 31.96 59.6807 35.2 57.4007 40.96V22.12C57.4007 13.12 60.5207 8.56003 67.6007 8.56003C74.4407 8.56003 77.5607 13 77.5607 20.56V22.72H86.3207V21.16C86.3207 8.32003 80.3207 0.160034 67.3607 0.160034ZM67.3607 40.48C74.0807 40.48 77.3207 45.04 77.3207 52.6V65.2C77.3207 72.76 74.0807 77.32 67.3607 77.32C60.5207 77.32 57.4007 72.76 57.4007 65.2V52.6C57.4007 45.04 60.5207 40.48 67.3607 40.48Z" fill="#D9D9D9"/>
</svg>
