<svg width="30" height="31" viewBox="0 0 30 31" fill="none" xmlns="http://www.w3.org/2000/svg">
<path fill-rule="evenodd" clip-rule="evenodd" d="M0 15.6641V30.6641H15H30V15.6641V0.664062H15H0V15.6641ZM28.2422 15.6641V28.9062H15H1.75781V15.6641V2.42188H15H28.2422V15.6641ZM12.8516 4.14066C12.7515 4.24062 12.7508 8.81598 12.8505 10.7715L12.9268 12.2656H13.7876H14.6484V10.9334V9.60113L15.498 9.5457C17.3297 9.42605 18.3573 8.33809 18.2603 6.62105C18.2237 5.97406 18.1515 5.73934 17.8632 5.32906C17.4581 4.75273 16.9113 4.35055 16.3029 4.18156C15.833 4.05102 12.975 4.01715 12.8516 4.14066ZM16.0462 5.99176C16.4146 6.18219 16.5234 6.38305 16.5234 6.8716C16.5234 7.45801 16.1811 7.72977 15.369 7.78859L14.6484 7.84062V6.83047V5.82031H15.1816C15.4748 5.82031 15.8639 5.89742 16.0462 5.99176ZM9.92355 16.8291L8.6557 18.4539L7.10156 18.4946C5.61 18.5335 5.52445 18.5495 4.97461 18.8895C4.65961 19.0844 4.24195 19.471 4.0466 19.7489L3.69141 20.2538L3.65566 22.7636L3.61992 25.2734H5.07703H6.53402L6.67277 25.6084C6.86601 26.0749 7.58695 26.7485 8.13949 26.9786C8.71512 27.2185 9.77719 27.2284 10.3261 26.999C10.8922 26.7624 11.5361 26.1755 11.7698 25.6829L11.9641 25.2734H14.9817H17.9994L18.4039 25.8887C19.4019 27.4061 21.4568 27.6307 22.7563 26.3643C22.9941 26.1328 23.2509 25.7926 23.3272 25.6084L23.466 25.2734H24.9165H26.3672V22.9259C26.3672 20.3945 26.3213 20.1445 25.7257 19.4382C25.1125 18.7109 24.6186 18.5472 22.8889 18.498L21.3443 18.4539L20.0764 16.8291L18.8086 15.2043H15H11.1914L9.92355 16.8291ZM18.5381 17.7441L19.1236 18.4766H14.9968H10.8702L11.315 17.9199C11.5597 17.6137 11.8387 17.2701 11.9351 17.1562C12.0953 16.9668 12.36 16.9518 15.0314 16.9804L17.9527 17.0117L18.5381 17.7441ZM24.1322 20.4058C24.3146 20.5002 24.4965 20.6626 24.5366 20.767C24.5766 20.8713 24.6094 21.5325 24.6094 22.2362V23.5156H24.0844C23.5941 23.5156 23.5444 23.4861 23.3312 23.0682C23.0354 22.4886 22.2957 21.8246 21.742 21.6418C21.5014 21.5625 20.9733 21.5187 20.5672 21.5445C19.5736 21.6078 18.823 22.0646 18.3398 22.8999L17.9883 23.5078L14.9849 23.5118L11.9816 23.5156L11.8295 23.1485C11.2629 21.7805 9.38262 21.1018 8.00601 21.7681C7.45734 22.0338 6.71121 22.8218 6.6041 23.2488C6.54574 23.4809 6.46254 23.5156 5.96391 23.5156H5.39062V22.1904C5.39062 20.8229 5.44734 20.6271 5.91797 20.3697C6.08156 20.2802 8.81602 20.2405 14.9766 20.2379C22.4968 20.2348 23.8496 20.2597 24.1322 20.4058ZM10.0248 23.5689C10.3764 23.9204 10.4177 24.6509 10.1074 25.0277C9.32812 25.9739 7.7782 25.0648 8.24918 23.9377C8.45238 23.4513 8.71102 23.2895 9.29238 23.2848C9.6116 23.2823 9.81844 23.3625 10.0248 23.5689ZM21.5241 23.5618C21.9717 23.9469 21.9838 24.671 21.5498 25.1049C21.0525 25.6024 20.1647 25.5048 19.862 24.9194C19.6086 24.4293 19.6468 24.0507 19.9909 23.6418C20.3838 23.1748 21.0347 23.1409 21.5241 23.5618Z" fill="#E63E1F"/>
</svg>
