<svg width="44" height="44" viewBox="0 0 44 44" fill="none" xmlns="http://www.w3.org/2000/svg">
<g filter="url(#filter0_d_36_58)">
<path d="M22.0001 8.66602C14.6534 8.66602 8.66675 14.6527 8.66675 21.9993C8.66675 29.346 14.6534 35.3327 22.0001 35.3327C29.3467 35.3327 35.3334 29.346 35.3334 21.9993C35.3334 14.6527 29.3467 8.66602 22.0001 8.66602ZM27.4134 24.386C27.2134 24.586 26.9601 24.6793 26.7067 24.6793C26.4534 24.6793 26.2001 24.586 26.0001 24.386L22.0001 20.386L18.0001 24.386C17.6134 24.7727 16.9734 24.7727 16.5867 24.386C16.2001 23.9993 16.2001 23.3593 16.5867 22.9727L21.2934 18.266C21.6801 17.8793 22.3201 17.8793 22.7067 18.266L27.4134 22.9727C27.8001 23.3727 27.8001 23.9993 27.4134 24.386Z" fill="white"/>
</g>
<defs>
<filter id="filter0_d_36_58" x="0.666748" y="0.666016" width="42.6666" height="42.6667" filterUnits="userSpaceOnUse" color-interpolation-filters="sRGB">
<feFlood flood-opacity="0" result="BackgroundImageFix"/>
<feColorMatrix in="SourceAlpha" type="matrix" values="0 0 0 0 0 0 0 0 0 0 0 0 0 0 0 0 0 0 127 0" result="hardAlpha"/>
<feOffset/>
<feGaussianBlur stdDeviation="4"/>
<feComposite in2="hardAlpha" operator="out"/>
<feColorMatrix type="matrix" values="0 0 0 0 0 0 0 0 0 0 0 0 0 0 0 0 0 0 0.12 0"/>
<feBlend mode="normal" in2="BackgroundImageFix" result="effect1_dropShadow_36_58"/>
<feBlend mode="normal" in="SourceGraphic" in2="effect1_dropShadow_36_58" result="shape"/>
</filter>
</defs>
</svg>
