<svg width="151" height="32" viewBox="0 0 151 32" fill="none" xmlns="http://www.w3.org/2000/svg">
<g clip-path="url(#clip0_223_1028)">
<path d="M43.4137 0.0996094H38.5234V18.1432H43.4137V0.0996094Z" fill="black"/>
<path d="M32.8347 18.1432H37.725L31.0383 0.0996094H30.9385H26.2478H26.0482L19.4613 18.1432H24.3516L25.15 15.8504H31.9365L32.8347 18.1432ZM26.647 11.8628L28.5433 6.57936L30.4395 11.8628H26.647Z" fill="black"/>
<path d="M58.7832 18.1432L61.378 10.9657V0.0996094H56.4877V9.37064L50.799 0.0996094H46.0085V0.69774V18.1432H50.799V8.67282L56.4877 18.0435V18.1432H58.7832Z" fill="black"/>
<path d="M18.4633 0.0996094H18.0641H13.573L9.18176 9.17126L4.89028 0.0996094H4.79048H2.49504L0 6.97811V18.1432H4.79048V9.37064L7.28553 14.5544H11.078L13.573 9.27095V18.1432H18.4633V0.0996094Z" fill="black"/>
<path d="M104.093 12.1619C103.494 11.165 102.995 10.4672 101.997 10.0685C104.792 9.86908 106.488 8.07469 106.488 5.18372C106.488 1.99369 104.492 0.0996094 101.299 0.0996094H93.614V18.2429H94.5122C94.7118 18.2429 94.8116 18.1432 94.8116 17.9438V10.3675H99.0033C101.099 10.3675 102.097 11.0653 102.995 12.76L105.79 18.3426H106.289H106.788H107.187L104.093 12.1619ZM101.498 9.07157H94.8116V1.09649H101.199C103.993 1.09649 105.49 2.69151 105.291 5.58248C105.091 7.57625 103.494 9.07157 101.498 9.07157Z" fill="black"/>
<path d="M66.0687 1.99393C66.9669 1.19642 68.3642 0.797666 70.0608 0.797666C72.955 0.797666 74.5519 1.89424 75.6497 4.18707L75.8493 4.48614L76.1487 4.38645L76.6477 4.18707L76.9471 4.08739L76.8473 3.78832C75.5499 1.09673 73.5539 -0.199219 70.1606 -0.199219C68.8632 -0.199219 67.6656 0.000158235 66.7673 0.398912L66.0687 1.99393Z" fill="black"/>
<path d="M70.6596 8.47331C67.965 8.17425 65.2703 7.77549 64.9709 5.18359L64.2723 7.07767C65.3701 8.97176 67.965 9.37051 70.3602 9.66958C73.1547 9.96864 75.7495 10.3674 75.7495 13.358C75.7495 16.0496 73.8533 17.3456 70.1606 17.3456C67.2664 17.3456 65.4699 16.1493 64.3721 13.5574V13.2584L64.2723 13.358L63.7733 14.7537C65.0707 17.3456 67.0668 18.5419 70.3602 18.5419C74.8513 18.5419 77.1467 16.6478 77.1467 13.358C76.9471 9.37051 73.7535 8.77238 70.6596 8.47331Z" fill="black"/>
<path d="M119.862 17.0467H111.179V9.47041H122.656L123.155 8.37383H111.179V1.09657H125.85L126.349 0H109.981V18.1433H119.463L119.862 17.0467Z" fill="black"/>
<path d="M129.742 0L129.343 1.09657H143.914V18.1433H145.112V1.09657H151V0H129.742Z" fill="black"/>
<path d="M78.2445 0V1.09657H78.5439H84.033V16.7477V18.1433H84.9312H85.2306V17.8442C85.2306 17.8442 85.2306 17.8442 85.2306 17.7445V1.09657H90.7197H91.0191V0.797508V0H78.2445Z" fill="black"/>
<path d="M94.8116 16.9473H93.614V18.1435H94.8116V16.9473Z" fill="black"/>
<path d="M132.736 17.0469H123.255L122.856 18.1434H132.337L132.736 17.0469Z" fill="black"/>
<path d="M135.93 8.37305H126.549L126.149 9.46962H135.531L135.93 8.37305Z" fill="black"/>
<path d="M16.8665 31.8008H16.6669C16.4673 31.8008 16.4673 31.8008 16.3675 31.7011L15.5691 30.1061C15.3695 29.7074 15.0701 29.508 14.5711 29.508H13.8725V31.7011C13.8725 31.8008 13.8725 31.8008 13.7727 31.8008H13.5731C13.4733 31.8008 13.4733 31.8008 13.4733 31.7011V26.9161C13.4733 26.8164 13.4733 26.8164 13.5731 26.8164H13.7727C13.8725 26.8164 13.8725 26.8164 13.8725 26.9161V29.0096H14.5711H14.7707L16.3675 26.9161C16.4673 26.8164 16.4673 26.8164 16.6669 26.8164H16.9663C17.0661 26.8164 17.0661 26.9161 17.0661 26.9161L15.3695 29.1092C15.7687 29.2089 16.0681 29.508 16.2677 29.9067L17.1659 31.7011C16.9663 31.8008 16.9663 31.8008 16.8665 31.8008Z" fill="black"/>
<path d="M22.5552 28.0136C22.5552 28.6117 22.3556 29.0105 21.8566 29.1102C22.3556 29.2099 22.7548 29.7083 22.7548 30.4061C22.7548 31.3033 22.156 31.8018 21.2578 31.8018H19.1619C19.0621 31.8018 19.0621 31.8018 19.0621 31.7021V26.917C19.0621 26.8173 19.0621 26.8173 19.1619 26.8173H21.158C22.0562 26.7176 22.5552 27.2161 22.5552 28.0136ZM21.158 27.2161H19.5611V29.0105H21.158C21.7568 29.0105 22.0562 28.7114 22.0562 28.1133C22.0562 27.5151 21.7568 27.2161 21.158 27.2161ZM21.2578 29.5089H19.5611V31.403H21.2578C21.8566 31.403 22.2558 31.1039 22.2558 30.5058C22.2558 29.808 21.8566 29.5089 21.2578 29.5089Z" fill="black"/>
<path d="M28.8427 31.8009H28.6431C28.4435 31.8009 28.4435 31.8009 28.3437 31.7012L27.8447 30.3056H25.649L25.0502 31.7012C25.0502 31.8009 24.9504 31.8009 24.7508 31.8009H24.5512C24.4514 31.8009 24.4514 31.7012 24.4514 31.7012L26.3476 26.8165C26.3476 26.7168 26.4475 26.7168 26.5473 26.7168H26.7469C26.8467 26.7168 26.9465 26.7168 26.9465 26.8165L28.8427 31.8009C28.9425 31.8009 28.9425 31.8009 28.8427 31.8009ZM26.7469 27.2152C26.7469 27.2152 26.7469 27.5143 26.6471 27.7137L25.7488 29.9068H27.6451L26.7469 27.7137C26.7469 27.5143 26.7469 27.2152 26.7469 27.2152Z" fill="black"/>
<path d="M34.6312 28.3128C34.6312 29.3096 34.0324 29.9078 33.0344 29.9078H31.5374V31.7022C31.5374 31.8019 31.5374 31.8019 31.4376 31.8019H31.238C31.1382 31.8019 31.1382 31.8019 31.1382 31.7022V26.9171C31.1382 26.8174 31.1382 26.8174 31.238 26.8174H33.0344C34.0324 26.7177 34.6312 27.3159 34.6312 28.3128ZM34.1322 28.3128C34.1322 27.6149 33.733 27.2162 33.0344 27.2162H31.5374V29.4093H33.0344C33.6332 29.4093 34.1322 29.0106 34.1322 28.3128Z" fill="black"/>
<path d="M40.1203 26.9164V27.1157C40.1203 27.2154 40.1203 27.2154 40.0205 27.2154H38.6233V31.7014C38.6233 31.8011 38.6233 31.8011 38.5235 31.8011H38.3239C38.2241 31.8011 38.2241 31.8011 38.2241 31.7014V27.2154H36.8269C36.7271 27.2154 36.7271 27.2154 36.7271 27.1157V26.9164C36.7271 26.8167 36.7271 26.8167 36.8269 26.8167H40.2201C40.0205 26.717 40.1203 26.8167 40.1203 26.9164Z" fill="black"/>
<path d="M45.4098 31.8009H45.2102C45.0106 31.8009 45.0106 31.8009 44.9108 31.7012L44.4117 30.3056H42.2161L41.7171 31.7012C41.7171 31.8009 41.6173 31.8009 41.4177 31.8009H41.2181C41.1183 31.8009 41.1183 31.7012 41.1183 31.7012L43.0145 26.8165C43.0145 26.7168 43.1143 26.7168 43.2141 26.7168H43.4137C43.5135 26.7168 43.6133 26.7168 43.6133 26.8165L45.5096 31.7012C45.6094 31.8009 45.5096 31.8009 45.4098 31.8009ZM43.3139 27.2152C43.3139 27.2152 43.3139 27.5143 43.2141 27.7137L42.3159 29.9068H44.2121L43.3139 27.7137C43.3139 27.5143 43.3139 27.2152 43.3139 27.2152Z" fill="black"/>
<path d="M51.1983 26.9164V31.7014C51.1983 31.8011 51.1983 31.8011 51.0985 31.8011H50.8989C50.7991 31.8011 50.7991 31.8011 50.7991 31.7014V27.2154H48.7033V28.5114C48.7033 31.3027 48.1045 31.6017 47.5057 31.9008C47.4059 31.9008 47.4059 31.9008 47.3061 31.8011L47.2063 31.6017C47.1065 31.502 47.2063 31.502 47.3061 31.4024C47.8051 31.1033 48.2043 30.9039 48.2043 28.5114V26.9164C48.2043 26.8167 48.2043 26.8167 48.3041 26.8167H50.9987C51.0985 26.717 51.1983 26.8167 51.1983 26.9164Z" fill="black"/>
<path d="M60.5796 26.9164V31.7014C60.5796 31.8011 60.5796 31.8011 60.4798 31.8011H60.2802C60.1804 31.8011 60.1804 31.8011 60.1804 31.7014V29.5083H57.4858V31.7014C57.4858 31.8011 57.4858 31.8011 57.386 31.8011H56.9868C56.887 31.8011 56.887 31.8011 56.887 31.7014V26.9164C56.887 26.8167 56.887 26.8167 56.9868 26.8167H57.1864C57.2862 26.8167 57.2862 26.8167 57.2862 26.9164V29.0098H59.9808V26.9164C59.9808 26.8167 59.9808 26.8167 60.0806 26.8167H60.2802C60.5796 26.717 60.5796 26.8167 60.5796 26.9164Z" fill="black"/>
<path d="M66.967 31.8009H66.7674C66.5678 31.8009 66.5678 31.8009 66.468 31.7012L65.969 30.3056H63.7734L63.2743 31.7012C63.2743 31.8009 63.1745 31.8009 62.9749 31.8009H62.7753C62.6755 31.8009 62.6755 31.7012 62.6755 31.7012L64.5718 26.8165C64.5718 26.7168 64.6716 26.7168 64.7714 26.7168H64.971C65.0708 26.7168 65.1706 26.7168 65.1706 26.8165L66.967 31.8009C67.0668 31.8009 67.0668 31.8009 66.967 31.8009ZM64.8712 27.2152C64.8712 27.2152 64.8712 27.5143 64.7714 27.7137L63.8732 29.9068H65.7694L64.971 27.7137C64.8712 27.5143 64.8712 27.2152 64.8712 27.2152Z" fill="black"/>
<path d="M75.8493 31.8008H75.6497C75.4501 31.8008 75.4501 31.8008 75.3503 31.7011L74.5519 30.1061C74.3523 29.7074 74.0529 29.508 73.5539 29.508H72.8553V31.7011C72.8553 31.8008 72.8553 31.8008 72.7555 31.8008H72.5559C72.4561 31.8008 72.4561 31.8008 72.4561 31.7011V26.9161C72.4561 26.8164 72.4561 26.8164 72.5559 26.8164H72.7555C72.8553 26.8164 72.8553 26.8164 72.8553 26.9161V29.0096H73.5539H73.7535L75.3503 26.9161C75.4501 26.8164 75.4501 26.8164 75.6497 26.8164H75.9491C76.0489 26.8164 76.0489 26.9161 76.0489 26.9161L74.3523 29.1092C74.7515 29.2089 75.0509 29.508 75.2505 29.9067L76.1487 31.7011C75.9491 31.8008 75.9491 31.8008 75.8493 31.8008Z" fill="black"/>
<path d="M81.6379 26.9164L79.2427 31.7014C79.1429 31.8011 79.1428 31.8011 79.043 31.8011H78.7436C78.6438 31.8011 78.6438 31.7014 78.6438 31.7014L79.3425 30.4055L77.546 26.9164C77.546 26.8167 77.546 26.8167 77.6458 26.8167H77.8454C78.045 26.8167 78.045 26.8167 78.1448 26.9164L79.6419 29.8073L81.0391 26.9164C81.1389 26.8167 81.1389 26.8167 81.3385 26.8167H81.5381C81.6379 26.717 81.6379 26.8167 81.6379 26.9164Z" fill="black"/>
<path d="M86.9273 26.9159V27.1153C86.9273 27.215 86.9273 27.215 86.8275 27.215H85.4303V31.7009C85.4303 31.8006 85.4303 31.8006 85.3305 31.8006H84.9313C84.8315 31.8006 84.8315 31.8006 84.8315 31.7009V27.215H83.4343C83.3345 27.215 83.3345 27.215 83.3345 27.1153V26.9159C83.3345 26.8162 83.3345 26.8162 83.4343 26.8162L86.9273 26.9159C86.9273 26.7165 86.9273 26.8162 86.9273 26.9159Z" fill="black"/>
<path d="M92.616 26.9164L90.2208 31.7014C90.121 31.8011 90.121 31.8011 90.0212 31.8011H89.7218C89.622 31.8011 89.622 31.7014 89.622 31.7014L90.3206 30.4055L88.5242 26.9164C88.5242 26.8167 88.5242 26.8167 88.624 26.8167H88.8236C89.0232 26.8167 89.0232 26.8167 89.123 26.9164L90.62 29.8073L92.0172 26.9164C92.117 26.8167 92.117 26.8167 92.3166 26.8167H92.5162C92.616 26.717 92.616 26.8167 92.616 26.9164Z" fill="black"/>
<path d="M97.3067 29.2091C97.9055 29.4085 98.1051 29.9069 98.1051 30.4053C98.1051 31.3025 97.5063 31.9007 96.3087 31.9007C95.111 31.9007 94.5122 31.4022 94.3126 30.7044C94.3126 30.6047 94.3126 30.505 94.4124 30.505L94.612 30.4053C94.7118 30.4053 94.7118 30.4053 94.8116 30.505C95.0112 31.1032 95.4104 31.4022 96.3087 31.4022C97.2069 31.4022 97.6061 31.0035 97.6061 30.4053C97.6061 29.8072 97.3067 29.4085 96.7079 29.4085H95.5102C95.4104 29.4085 95.4104 29.4085 95.4104 29.3088V29.1094C95.4104 29.0097 95.4104 29.0097 95.5102 29.0097H96.7079C97.3067 29.0097 97.6061 28.611 97.6061 28.1125C97.6061 27.5144 97.2069 27.1156 96.4085 27.1156C95.5102 27.1156 95.111 27.4147 94.9114 28.0128C94.9114 28.1125 94.8116 28.1125 94.7118 28.1125L94.5122 28.0128C94.4124 28.0128 94.4124 27.9131 94.4124 27.8134C94.7118 27.0159 95.2108 26.6172 96.4085 26.6172C97.5063 26.6172 98.1051 27.1156 98.1051 28.0128C98.0053 28.611 97.8057 29.0097 97.3067 29.2091Z" fill="black"/>
<path d="M102.297 26.6172C103.594 26.6172 104.293 27.315 104.293 28.4116V30.1063C104.293 31.2029 103.594 31.9007 102.297 31.9007C100.999 31.9007 100.301 31.2029 100.301 30.1063V28.4116C100.301 27.315 100.999 26.6172 102.297 26.6172ZM102.297 27.1156C101.399 27.1156 100.8 27.6141 100.8 28.4116V30.1063C100.8 30.9038 101.299 31.4022 102.297 31.4022C103.195 31.4022 103.694 30.9038 103.694 30.1063V28.4116C103.694 27.6141 103.195 27.1156 102.297 27.1156Z" fill="black"/>
<path d="M110.181 28.0136C110.181 28.6117 109.982 29.0105 109.483 29.1102C109.982 29.2099 110.381 29.7083 110.381 30.4061C110.381 31.3033 109.782 31.8018 108.884 31.8018H106.788C106.688 31.8018 106.688 31.8018 106.688 31.7021V26.917C106.688 26.8173 106.688 26.8173 106.788 26.8173H108.784C109.682 26.7176 110.181 27.2161 110.181 28.0136ZM108.684 27.2161H107.087V29.0105H108.684C109.283 29.0105 109.582 28.7114 109.582 28.1133C109.582 27.5151 109.283 27.2161 108.684 27.2161ZM108.784 29.5089H107.087V31.403H108.784C109.383 31.403 109.782 31.1039 109.782 30.5058C109.782 29.808 109.483 29.5089 108.784 29.5089Z" fill="black"/>
<path d="M114.473 26.6172C115.57 26.6172 116.169 27.0159 116.369 27.8134C116.369 27.9131 116.369 28.0128 116.269 28.0128L116.069 28.1125C115.97 28.1125 115.97 28.1125 115.87 28.0128C115.67 27.4147 115.271 27.1156 114.473 27.1156C113.574 27.1156 113.075 27.6141 113.075 28.4116V30.1063C113.075 30.9038 113.574 31.4022 114.473 31.4022C115.271 31.4022 115.67 31.1032 115.87 30.505C115.87 30.4053 115.97 30.4053 116.069 30.4053L116.269 30.505C116.369 30.505 116.369 30.6047 116.369 30.7044C116.069 31.5019 115.57 32.0004 114.473 32.0004C113.175 32.0004 112.477 31.3025 112.477 30.206V28.5113C112.477 27.315 113.175 26.6172 114.473 26.6172Z" fill="black"/>
<path d="M122.157 31.8008H121.958C121.758 31.8008 121.758 31.8008 121.658 31.7011L120.86 30.1061C120.66 29.7074 120.361 29.508 119.862 29.508H119.163V31.7011C119.163 31.8008 119.163 31.8008 119.063 31.8008H118.864C118.764 31.8008 118.764 31.8008 118.764 31.7011V26.9161C118.764 26.8164 118.764 26.8164 118.864 26.8164H119.063C119.163 26.8164 119.163 26.8164 119.163 26.9161V29.0096H119.862H120.061L121.658 26.9161C121.758 26.8164 121.758 26.8164 121.958 26.8164H122.257C122.357 26.8164 122.357 26.9161 122.357 26.9161L120.66 29.1092C121.059 29.2089 121.359 29.508 121.558 29.9067L122.457 31.7011C122.257 31.8008 122.257 31.8008 122.157 31.8008Z" fill="black"/>
<path d="M126.149 26.6172C127.447 26.6172 128.145 27.315 128.145 28.4116V30.1063C128.145 31.2029 127.447 31.9007 126.149 31.9007C124.852 31.9007 124.153 31.2029 124.153 30.1063V28.4116C124.153 27.315 124.852 26.6172 126.149 26.6172ZM126.149 27.1156C125.251 27.1156 124.652 27.6141 124.652 28.4116V30.1063C124.652 30.9038 125.151 31.4022 126.149 31.4022C127.048 31.4022 127.547 30.9038 127.547 30.1063V28.4116C127.547 27.6141 127.048 27.1156 126.149 27.1156Z" fill="black"/>
<path d="M135.032 26.9159V31.7009C135.032 31.8006 135.032 31.8006 134.932 31.8006H134.732C134.633 31.8006 134.633 31.8006 134.633 31.7009V28.81C134.633 28.4112 134.633 28.0125 134.732 27.514C134.533 27.9128 134.333 28.3115 134.134 28.6106L133.036 30.5047C133.036 30.6044 132.936 30.6044 132.836 30.6044H132.736C132.637 30.6044 132.637 30.6044 132.537 30.5047L131.439 28.6106C131.239 28.2118 131.04 27.9128 130.94 27.514C131.04 28.0125 131.04 28.4112 131.04 28.81V31.7009C131.04 31.8006 131.04 31.8006 130.94 31.8006H130.74C130.641 31.8006 130.641 31.8006 130.641 31.7009V26.9159C130.641 26.8162 130.641 26.8162 130.74 26.8162H130.94C131.04 26.8162 131.14 26.8162 131.14 26.9159L132.936 30.0062L134.732 26.9159C134.832 26.8162 134.832 26.8162 134.932 26.8162L135.032 26.9159C135.032 26.7165 135.032 26.8162 135.032 26.9159Z" fill="black"/>
</g>
<defs>
<clipPath id="clip0_223_1028">
<rect width="151" height="32" fill="white"/>
</clipPath>
</defs>
</svg>
