<svg width="151" height="32" viewBox="0 0 151 32" fill="none" xmlns="http://www.w3.org/2000/svg">
<g clip-path="url(#clip0_114_329)">
<path d="M43.4137 0.0996704H38.5234V18.1433H43.4137V0.0996704Z" fill="white"/>
<path d="M32.8344 18.1433H37.7247L31.0379 0.0996704H30.9381H26.2475H26.0479L19.4609 18.1433H24.3512L25.1496 15.8504H31.9362L32.8344 18.1433ZM26.6467 11.8629L28.5429 6.57942L30.4391 11.8629C30.4391 11.8629 26.6467 11.8629 26.6467 11.8629Z" fill="white"/>
<path d="M58.7824 18.1433L61.3773 10.9657V0.0996704H56.487V9.3707L50.7983 0.0996704H46.0078V0.697801V18.1433H50.7983V8.67288L56.487 18.0436V18.1433H58.7824Z" fill="white"/>
<path d="M18.4633 0.0996704H18.0641H13.573L9.18176 9.17132L4.89028 0.0996704H4.79048H2.49504L0 6.97818V18.1433H4.79048V9.3707L7.28553 14.5545H11.078L13.573 9.27101V18.1433H18.4633V0.0996704Z" fill="white"/>
<path d="M104.092 12.162C103.494 11.1651 102.995 10.4673 101.997 10.0685C104.791 9.86914 106.488 8.07475 106.488 5.18378C106.488 1.99375 104.492 0.0996704 101.298 0.0996704H93.6133V18.243H94.5115C94.7111 18.243 94.8109 18.1433 94.8109 17.9439V10.3676H99.0026C101.098 10.3676 102.096 11.0654 102.995 12.7601L105.789 18.3427H106.288H106.787H107.186L104.092 12.162ZM101.498 9.07163H94.8109V1.09656H101.198C103.993 1.09656 105.49 2.69157 105.29 5.58254C105.09 7.57631 103.494 9.07163 101.498 9.07163Z" fill="white"/>
<path d="M66.0684 1.99374C66.9666 1.19624 68.3638 0.797483 70.0604 0.797483C72.9547 0.797483 74.5515 1.89406 75.6493 4.18689L75.8489 4.48596L76.1483 4.38627L76.6473 4.18689L76.9467 4.0872L76.8469 3.78814C75.5495 1.09655 73.5535 -0.199402 70.1602 -0.199402C68.8628 -0.199402 67.6652 -2.48731e-05 66.767 0.398729L66.0684 1.99374Z" fill="white"/>
<path d="M70.6598 8.4735C67.9651 8.17443 65.2705 7.77568 64.9711 5.18378L64.2724 7.07786C65.3703 8.97194 67.9651 9.37069 70.3603 9.66976C73.1548 9.96882 75.7496 10.3676 75.7496 13.3582C75.7496 16.0498 73.8534 17.3458 70.1607 17.3458C67.2665 17.3458 65.4701 16.1495 64.3722 13.5576V13.2585L64.2724 13.3582L63.7734 14.7539C65.0709 17.3458 67.0669 18.542 70.3603 18.542C74.8514 18.542 77.1469 16.648 77.1469 13.3582C76.9473 9.37069 73.7536 8.77256 70.6598 8.4735Z" fill="white"/>
<path d="M119.863 17.0467H111.18V9.47041H122.657L123.156 8.37383H111.18V1.09657H125.851L126.35 0H109.982V18.1433H119.464L119.863 17.0467Z" fill="white"/>
<path d="M129.743 0L129.344 1.09657H143.915V18.1433H145.112V1.09657H151.001V0H129.743Z" fill="white"/>
<path d="M78.2441 0V1.09657H78.5435H84.0326V16.7477V18.1433H84.9309H85.2303V17.8442C85.2303 17.8442 85.2303 17.8442 85.2303 17.7445V1.09657H90.7194H91.0188V0.797508V0H78.2441Z" fill="white"/>
<path d="M94.8109 16.947H93.6133V18.1433H94.8109V16.947Z" fill="white"/>
<path d="M132.736 17.0467H123.255L122.855 18.1433H132.337L132.736 17.0467Z" fill="white"/>
<path d="M135.929 8.37378H126.548L126.148 9.47035H135.53L135.929 8.37378Z" fill="white"/>
<path d="M3.86591 31.9844H3.66631C3.46671 31.9844 3.46671 31.9844 3.36691 31.8847L2.56849 30.2897C2.36889 29.8909 2.06948 29.6915 1.57048 29.6915H0.871863V31.8847C0.871863 31.9844 0.871863 31.9844 0.772062 31.9844H0.572458C0.472657 31.9844 0.472656 31.9844 0.472656 31.8847V27.0996C0.472656 26.9999 0.472657 26.9999 0.572458 26.9999H0.772062C0.871863 26.9999 0.871863 26.9999 0.871863 27.0996V29.1931H1.57048H1.77008L3.36691 27.0996C3.46671 26.9999 3.46671 26.9999 3.66631 26.9999H3.96572C4.06552 26.9999 4.06552 27.0996 4.06552 27.0996L2.36889 29.2928C2.7681 29.3925 3.0675 29.6915 3.2671 30.0903L4.16532 31.8847C3.96572 31.9844 3.96572 31.9844 3.86591 31.9844Z" fill="white"/>
<path d="M10.6591 28.2089C10.6591 28.807 10.4595 29.2058 9.96046 29.3055C10.4595 29.4052 10.8587 29.9036 10.8587 30.6014C10.8587 31.4986 10.2599 31.9971 9.36165 31.9971H7.26582C7.16602 31.9971 7.16602 31.9971 7.16602 31.8974V27.1123C7.16602 27.0126 7.16602 27.0126 7.26582 27.0126H9.26185C10.1601 26.913 10.6591 27.4114 10.6591 28.2089ZM9.26185 27.4114H7.66502V29.2058H9.26185C9.86066 29.2058 10.1601 28.9067 10.1601 28.3086C10.1601 27.7105 9.86066 27.4114 9.26185 27.4114ZM9.36165 29.7042H7.66502V31.5983H9.36165C9.96046 31.5983 10.3597 31.2992 10.3597 30.7011C10.3597 30.0033 9.96046 29.7042 9.36165 29.7042Z" fill="white"/>
<path d="M18.2507 32.0841H18.051C17.8514 32.0841 17.8514 32.0841 17.7516 31.9844L17.2526 30.5888H15.057L14.4582 31.9844C14.4582 32.0841 14.3584 32.0841 14.1588 32.0841H13.9592C13.8594 32.0841 13.8594 31.9844 13.8594 31.9844L15.7556 27.0997C15.7556 27 15.8554 27 15.9552 27H16.1548C16.2546 27 16.3544 27 16.3544 27.0997L18.2507 32.0841C18.3505 32.0841 18.3505 32.0841 18.2507 32.0841ZM16.1548 27.4984C16.1548 27.4984 16.1548 27.7975 16.055 27.9969L15.1568 30.19H17.053L16.1548 27.9969C16.1548 27.7975 16.1548 27.4984 16.1548 27.4984Z" fill="white"/>
<path d="M24.8192 28.5061C24.8192 29.5029 24.2204 30.1011 23.2224 30.1011H21.7254V31.8955C21.7254 31.9952 21.7254 31.9952 21.6256 31.9952H21.426C21.3262 31.9952 21.3262 31.9952 21.3262 31.8955V27.1104C21.3262 27.0107 21.3262 27.0107 21.426 27.0107H23.2224C24.2204 26.911 24.8192 27.5092 24.8192 28.5061ZM24.3202 28.5061C24.3202 27.8082 23.921 27.4095 23.2224 27.4095H21.7254V29.6026H23.2224C23.8212 29.6026 24.3202 29.2039 24.3202 28.5061Z" fill="white"/>
<path d="M31.2116 27.1409V27.3403C31.2116 27.44 31.2116 27.44 31.1118 27.44H29.7146V31.926C29.7146 32.0257 29.7146 32.0257 29.6148 32.0257H29.4152C29.3154 32.0257 29.3154 32.0257 29.3154 31.926V27.44H27.9182C27.8184 27.44 27.8184 27.44 27.8184 27.3403V27.1409C27.8184 27.0412 27.8184 27.0412 27.9182 27.0412H31.3114C31.1118 26.9415 31.2116 27.0412 31.2116 27.1409Z" fill="white"/>
<path d="M38.602 32.0841H38.4024C38.2028 32.0841 38.2028 32.0841 38.103 31.9844L37.604 30.5888H35.4084L34.9094 31.9844C34.9094 32.0841 34.8096 32.0841 34.61 32.0841H34.4103C34.3105 32.0841 34.3105 31.9844 34.3105 31.9844L36.2068 27.0997C36.2068 27 36.3066 27 36.4064 27H36.606C36.7058 27 36.8056 27 36.8056 27.0997L38.7018 31.9844C38.8016 32.0841 38.7018 32.0841 38.602 32.0841ZM36.5062 27.4984C36.5062 27.4984 36.5062 27.7975 36.4064 27.9969L35.5082 30.19H37.4044L36.5062 27.9969C36.5062 27.7975 36.5062 27.4984 36.5062 27.4984Z" fill="white"/>
<path d="M45.7756 27.1409V31.926C45.7756 32.0257 45.7756 32.0257 45.6758 32.0257H45.4762C45.3764 32.0257 45.3764 32.0257 45.3764 31.926V27.44H43.2806V28.7359C43.2806 31.5272 42.6817 31.8263 42.0829 32.1253C41.9831 32.1253 41.9831 32.1253 41.8833 32.0257L41.7835 31.8263C41.6837 31.7266 41.7835 31.7266 41.8833 31.6269C42.3823 31.3278 42.7815 31.1285 42.7815 28.7359V27.1409C42.7815 27.0412 42.7815 27.0412 42.8813 27.0412H45.576C45.6758 26.9415 45.7756 27.0412 45.7756 27.1409Z" fill="white"/>
<path d="M60.4681 27.1409V31.926C60.4681 32.0257 60.4681 32.0257 60.3683 32.0257H60.1687C60.0688 32.0257 60.0688 32.0257 60.0688 31.926V29.7328H57.3742V31.926C57.3742 32.0257 57.3742 32.0257 57.2744 32.0257H56.8752C56.7754 32.0257 56.7754 32.0257 56.7754 31.926V27.1409C56.7754 27.0412 56.7754 27.0412 56.8752 27.0412H57.0748C57.1746 27.0412 57.1746 27.0412 57.1746 27.1409V29.2344H59.8692V27.1409C59.8692 27.0412 59.8692 27.0412 59.969 27.0412H60.1687C60.4681 26.9415 60.4681 27.0412 60.4681 27.1409Z" fill="white"/>
<path d="M67.7602 32.0841H67.5606C67.361 32.0841 67.361 32.0841 67.2612 31.9844L66.7622 30.5888H64.5666L64.0676 31.9844C64.0676 32.0841 63.9678 32.0841 63.7682 32.0841H63.5686C63.4688 32.0841 63.4688 31.9844 63.4688 31.9844L65.365 27.0997C65.365 27 65.4648 27 65.5646 27H65.7642C65.864 27 65.9638 27 65.9638 27.0997L67.7602 32.0841C67.86 32.0841 67.86 32.0841 67.7602 32.0841ZM65.6644 27.4984C65.6644 27.4984 65.6644 27.7975 65.5646 27.9969L64.6664 30.19H66.5626L65.7642 27.9969C65.6644 27.7975 65.6644 27.4984 65.6644 27.4984Z" fill="white"/>
<path d="M81.2292 31.9844H81.0296C80.83 31.9844 80.83 31.9844 80.7302 31.8847L79.9318 30.2897C79.7322 29.8909 79.4328 29.6915 78.9338 29.6915H78.2351V31.8847C78.2351 31.9844 78.2351 31.9844 78.1353 31.9844H77.9357C77.8359 31.9844 77.8359 31.9844 77.8359 31.8847V27.0996C77.8359 26.9999 77.8359 26.9999 77.9357 26.9999H78.1353C78.2351 26.9999 78.2351 26.9999 78.2351 27.0996V29.1931H78.9338H79.1334L80.7302 27.0996C80.83 26.9999 80.83 26.9999 81.0296 26.9999H81.329C81.4288 26.9999 81.4288 27.0996 81.4288 27.0996L79.7322 29.2928C80.1314 29.3925 80.4308 29.6915 80.6304 30.0903L81.5286 31.8847C81.329 31.9844 81.329 31.9844 81.2292 31.9844Z" fill="white"/>
<path d="M88.6212 27.1409L86.2259 31.926C86.1261 32.0257 86.1261 32.0257 86.0263 32.0257H85.7269C85.6271 32.0257 85.6271 31.926 85.6271 31.926L86.3257 30.63L84.5293 27.1409C84.5293 27.0412 84.5293 27.0412 84.6291 27.0412H84.8287C85.0283 27.0412 85.0283 27.0412 85.1281 27.1409L86.6251 30.0319L88.0224 27.1409C88.1222 27.0412 88.1222 27.0412 88.3218 27.0412H88.5214C88.6212 26.9415 88.6212 27.0412 88.6212 27.1409Z" fill="white"/>
<path d="M95.214 27.115V27.3144C95.214 27.4141 95.214 27.4141 95.1142 27.4141H93.7169V31.9001C93.7169 31.9998 93.7169 31.9998 93.6171 31.9998H93.2179C93.1181 31.9998 93.1181 31.9998 93.1181 31.9001V27.4141H91.7209C91.6211 27.4141 91.6211 27.4141 91.6211 27.3144V27.115C91.6211 27.0154 91.6211 27.0154 91.7209 27.0154L95.214 27.115C95.214 27.0154 95.214 26.9157 95.214 27.115Z" fill="white"/>
<path d="M102.307 27.1409L99.9115 31.926C99.8117 32.0257 99.8117 32.0257 99.7119 32.0257H99.4125C99.3127 32.0257 99.3127 31.926 99.3127 31.926L100.011 30.63L98.2148 27.1409C98.2148 27.0412 98.2148 27.0412 98.3147 27.0412H98.5143C98.7139 27.0412 98.7139 27.0412 98.8137 27.1409L100.311 30.0319L101.708 27.1409C101.808 27.0412 101.808 27.0412 102.007 27.0412H102.207C102.307 26.9415 102.307 27.0412 102.307 27.1409Z" fill="white"/>
<path d="M108.301 29.5918C108.9 29.7912 109.099 30.2897 109.099 30.7881C109.099 31.6853 108.5 32.2834 107.303 32.2834C106.105 32.2834 105.506 31.785 105.307 31.0872C105.307 30.9875 105.307 30.8878 105.406 30.8878L105.606 30.7881C105.706 30.7881 105.706 30.7881 105.806 30.8878C106.005 31.4859 106.404 31.785 107.303 31.785C108.201 31.785 108.6 31.3862 108.6 30.7881C108.6 30.19 108.301 29.7912 107.702 29.7912H106.504C106.404 29.7912 106.404 29.7912 106.404 29.6915V29.4922C106.404 29.3925 106.404 29.3925 106.504 29.3925H107.702C108.301 29.3925 108.6 28.9937 108.6 28.4953C108.6 27.8971 108.201 27.4984 107.402 27.4984C106.504 27.4984 106.105 27.7974 105.905 28.3956C105.905 28.4953 105.806 28.4953 105.706 28.4953L105.506 28.3956C105.406 28.3956 105.406 28.2959 105.406 28.1962C105.706 27.3987 106.205 26.9999 107.402 26.9999C108.5 26.9999 109.099 27.4984 109.099 28.3956C108.999 28.9937 108.8 29.3925 108.301 29.5918Z" fill="white"/>
<path d="M114.096 26.9999C115.393 26.9999 116.092 27.6978 116.092 28.7943V30.489C116.092 31.5856 115.393 32.2834 114.096 32.2834C112.798 32.2834 112.1 31.5856 112.1 30.489V28.7943C112.1 27.6978 112.798 26.9999 114.096 26.9999ZM114.096 27.4984C113.197 27.4984 112.599 27.9968 112.599 28.7943V30.489C112.599 31.2865 113.098 31.785 114.096 31.785C114.994 31.785 115.493 31.2865 115.493 30.489V28.7943C115.493 27.9968 114.994 27.4984 114.096 27.4984Z" fill="white"/>
<path d="M122.585 28.2089C122.585 28.807 122.385 29.2058 121.886 29.3055C122.385 29.4052 122.784 29.9036 122.784 30.6014C122.784 31.4986 122.186 31.9971 121.287 31.9971H119.192C119.092 31.9971 119.092 31.9971 119.092 31.8974V27.1123C119.092 27.0126 119.092 27.0126 119.192 27.0126H121.188C122.086 26.913 122.585 27.4114 122.585 28.2089ZM121.088 27.4114H119.491V29.2058H121.088C121.687 29.2058 121.986 28.9067 121.986 28.3086C121.986 27.7105 121.687 27.4114 121.088 27.4114ZM121.188 29.7042H119.491V31.5983H121.188C121.786 31.5983 122.186 31.2992 122.186 30.7011C122.186 30.0033 121.886 29.7042 121.188 29.7042Z" fill="white"/>
<path d="M127.781 26.9999C128.879 26.9999 129.478 27.3987 129.677 28.1962C129.677 28.2959 129.677 28.3956 129.578 28.3956L129.378 28.4953C129.278 28.4953 129.278 28.4953 129.178 28.3956C128.979 27.7974 128.58 27.4984 127.781 27.4984C126.883 27.4984 126.384 27.9968 126.384 28.7943V30.489C126.384 31.2865 126.883 31.785 127.781 31.785C128.58 31.785 128.979 31.4859 129.178 30.8878C129.178 30.7881 129.278 30.7881 129.378 30.7881L129.578 30.8878C129.677 30.8878 129.677 30.9875 129.677 31.0872C129.378 31.8847 128.879 32.3831 127.781 32.3831C126.484 32.3831 125.785 31.6853 125.785 30.5887V28.894C125.785 27.6978 126.484 26.9999 127.781 26.9999Z" fill="white"/>
<path d="M136.071 31.9844H135.871C135.672 31.9844 135.672 31.9844 135.572 31.8847L134.774 30.2897C134.574 29.8909 134.275 29.6915 133.776 29.6915H133.077V31.8847C133.077 31.9844 133.077 31.9844 132.977 31.9844H132.778C132.678 31.9844 132.678 31.9844 132.678 31.8847V27.0996C132.678 26.9999 132.678 26.9999 132.778 26.9999H132.977C133.077 26.9999 133.077 26.9999 133.077 27.0996V29.1931H133.776H133.975L135.572 27.0996C135.672 26.9999 135.672 26.9999 135.871 26.9999H136.171C136.271 26.9999 136.271 27.0996 136.271 27.0996L134.574 29.2928C134.973 29.3925 135.273 29.6915 135.472 30.0903L136.37 31.8847C136.171 31.9844 136.171 31.9844 136.071 31.9844Z" fill="white"/>
<path d="M141.367 26.9999C142.665 26.9999 143.363 27.6978 143.363 28.7943V30.489C143.363 31.5856 142.665 32.2834 141.367 32.2834C140.07 32.2834 139.371 31.5856 139.371 30.489V28.7943C139.371 27.6978 140.07 26.9999 141.367 26.9999ZM141.367 27.4984C140.469 27.4984 139.87 27.9968 139.87 28.7943V30.489C139.87 31.2865 140.369 31.785 141.367 31.785C142.265 31.785 142.764 31.2865 142.764 30.489V28.7943C142.764 27.9968 142.265 27.4984 141.367 27.4984Z" fill="white"/>
<path d="M150.755 27.115V31.9001C150.755 31.9998 150.755 31.9998 150.655 31.9998H150.455C150.355 31.9998 150.355 31.9998 150.355 31.9001V29.0091C150.355 28.6104 150.355 28.2116 150.455 27.7132C150.256 28.1119 150.056 28.5107 149.856 28.8098L148.759 30.7038C148.759 30.8035 148.659 30.8035 148.559 30.8035H148.459C148.359 30.8035 148.359 30.8035 148.26 30.7038L147.162 28.8098C146.962 28.411 146.762 28.1119 146.663 27.7132C146.762 28.2116 146.762 28.6104 146.762 29.0091V31.9001C146.762 31.9998 146.762 31.9998 146.663 31.9998H146.463C146.363 31.9998 146.363 31.9998 146.363 31.9001V27.115C146.363 27.0154 146.363 27.0154 146.463 27.0154H146.663C146.762 27.0154 146.862 27.0154 146.862 27.115L148.659 30.2054L150.455 27.115C150.555 27.0154 150.555 27.0154 150.655 27.0154L150.755 27.115C150.755 27.0154 150.755 26.9157 150.755 27.115Z" fill="white"/>
</g>
<defs>
<clipPath id="clip0_114_329">
<rect width="151" height="32" fill="white"/>
</clipPath>
</defs>
</svg>
