<svg width="46" height="18" viewBox="0 0 46 18" fill="none" xmlns="http://www.w3.org/2000/svg">
<path d="M38.76 14.1148C38.6175 14.1148 38.475 14.0623 38.3625 13.9498C38.145 13.7323 38.145 13.3723 38.3625 13.1548L42.5175 8.99984L38.3625 4.84484C38.145 4.62734 38.145 4.26734 38.3625 4.04984C38.58 3.83234 38.94 3.83234 39.1575 4.04984L43.71 8.60234C43.9275 8.81984 43.9275 9.17984 43.71 9.39734L39.1575 13.9498C39.045 14.0623 38.9025 14.1148 38.76 14.1148Z" fill="white"/>
<path d="M43.185 9.5625H0.5625C0.255 9.5625 0 9.3075 0 9C0 8.6925 0.255 8.4375 0.5625 8.4375H43.185C43.4925 8.4375 43.7475 8.6925 43.7475 9C43.7475 9.3075 43.4925 9.5625 43.185 9.5625Z" fill="white"/>
</svg>
