<svg width="40" height="40" viewBox="0 0 40 40" fill="none" xmlns="http://www.w3.org/2000/svg">
<path d="M16.6665 27.9173C15.9832 27.9173 15.4165 27.3507 15.4165 26.6673C15.4165 23.884 15.4165 20.4173 21.6665 20.4173H28.3332C32.0832 20.4173 32.0832 19.9173 32.0832 16.6673V13.334C32.0832 10.084 32.0832 9.58398 28.3332 9.58398H26.6665C25.9832 9.58398 25.4165 9.01732 25.4165 8.33398C25.4165 7.65065 25.9832 7.08398 26.6665 7.08398H28.3332C34.1665 7.08398 34.5832 9.45065 34.5832 13.334V16.6673C34.5832 20.5507 34.1665 22.9173 28.3332 22.9173H21.6665C17.9165 22.9173 17.9165 23.934 17.9165 26.6673C17.9165 27.3507 17.3498 27.9173 16.6665 27.9173Z" fill="#E63E1F"/>
<path d="M20.0001 14.584H13.3334C12.8001 14.584 12.3168 14.234 12.1501 13.734C11.0001 10.2507 11.0001 6.41732 12.1501 2.95065C12.3168 2.43398 12.8001 2.08398 13.3334 2.08398H20.0001C20.5334 2.08398 21.0168 2.43398 21.1834 2.93398C22.3501 6.41732 22.3501 10.2507 21.1834 13.7173C21.0168 14.234 20.5501 14.584 20.0001 14.584ZM14.2668 12.084H19.0834C19.7334 9.63398 19.7334 7.03398 19.0834 4.58398H14.2668C13.6168 7.03398 13.6168 9.63398 14.2668 12.084Z" fill="#E63E1F"/>
<path d="M13.3332 14.584H11.6665C7.63317 14.584 5.4165 12.3673 5.4165 8.33398C5.4165 4.30065 7.63317 2.08398 11.6665 2.08398H13.3332C13.7665 2.08398 14.1665 2.30065 14.3998 2.68398C14.6332 3.05065 14.6498 3.51732 14.4498 3.90065C12.9498 6.88398 12.9498 9.80065 14.4498 12.784C14.6498 13.1673 14.6165 13.634 14.3998 14.0007C14.1665 14.3673 13.7665 14.584 13.3332 14.584ZM11.4665 4.58398C8.98317 4.65065 7.9165 5.76732 7.9165 8.33398C7.9165 10.884 8.98317 12.0173 11.4498 12.084C10.6165 9.58398 10.6165 7.08398 11.4665 4.58398Z" fill="#E63E1F"/>
<path d="M21.6664 14.584H19.9998C19.5664 14.584 19.1664 14.3673 18.9331 13.984C18.6998 13.6173 18.6831 13.1507 18.8831 12.7673C20.3664 9.78398 20.3664 6.86732 18.8831 3.88398C18.6831 3.50065 18.7164 3.03398 18.9331 2.66732C19.1664 2.30065 19.5664 2.08398 19.9998 2.08398H21.6664C25.6998 2.08398 27.9164 4.30065 27.9164 8.33398C27.9164 12.3673 25.6998 14.584 21.6664 14.584ZM21.8664 4.58398C22.6998 7.08398 22.6998 9.58398 21.8664 12.084C24.3498 12.0173 25.3998 10.9007 25.3998 8.33398C25.4164 5.76732 24.3498 4.65065 21.8664 4.58398Z" fill="#E63E1F"/>
<path d="M17.5002 37.916H15.8335C14.1168 37.916 12.0835 37.266 12.0835 34.166V29.166C12.0835 26.066 14.1168 25.416 15.8335 25.416H17.5002C19.2168 25.416 21.2502 26.066 21.2502 29.166V34.166C21.2502 37.266 19.2168 37.916 17.5002 37.916ZM15.8335 27.916C14.5835 27.916 14.5835 28.2827 14.5835 29.166V34.166C14.5835 35.0493 14.5835 35.416 15.8335 35.416H17.5002C18.7502 35.416 18.7502 35.0493 18.7502 34.166V29.166C18.7502 28.2827 18.7502 27.916 17.5002 27.916H15.8335Z" fill="#E63E1F"/>
</svg>
