<svg width="40" height="40" viewBox="0 0 40 40" fill="none" xmlns="http://www.w3.org/2000/svg">
<path d="M19.9998 37.9337C18.1832 37.9337 16.3832 37.4004 14.9665 36.3504L7.79984 31.0004C5.89984 29.5837 4.4165 26.6171 4.4165 24.2671V11.8671C4.4165 9.30039 6.29984 6.56706 8.7165 5.66706L17.0332 2.55039C18.6832 1.93372 21.2832 1.93372 22.9332 2.55039L31.2498 5.66706C33.6665 6.56706 35.5498 9.30039 35.5498 11.8671V24.2504C35.5498 26.6171 34.0665 29.5671 32.1665 30.9837L24.9998 36.3337C23.6165 37.4004 21.8165 37.9337 19.9998 37.9337ZM17.9165 4.90039L9.59984 8.01706C8.18317 8.55039 6.93317 10.3504 6.93317 11.8837V24.2671C6.93317 25.8504 8.04984 28.0671 9.29984 29.0004L16.4665 34.3504C18.3832 35.7837 21.6165 35.7837 23.5498 34.3504L30.7165 29.0004C31.9832 28.0504 33.0832 25.8504 33.0832 24.2671V11.8671C33.0832 10.3504 31.8332 8.55039 30.4165 8.00039L22.0998 4.88372C20.9665 4.48372 19.0332 4.48372 17.9165 4.90039Z" fill="#E63E1F"/>
<path d="M17.7666 23.7172C17.4499 23.7172 17.1332 23.6005 16.8832 23.3505L14.1999 20.6672C13.7166 20.1839 13.7166 19.3839 14.1999 18.9005C14.6832 18.4172 15.4832 18.4172 15.9666 18.9005L17.7666 20.7005L24.0499 14.4172C24.5332 13.9339 25.3332 13.9339 25.8166 14.4172C26.2999 14.9005 26.2999 15.7005 25.8166 16.1839L18.6499 23.3505C18.3999 23.6005 18.0832 23.7172 17.7666 23.7172Z" fill="#E63E1F"/>
</svg>
