<svg width="40" height="40" viewBox="0 0 40 40" fill="none" xmlns="http://www.w3.org/2000/svg">
<path d="M11.9495 37.9174C7.98284 37.9174 4.73291 35.034 4.73291 31.484V28.084C4.73291 27.4007 5.29958 26.834 5.98291 26.834C6.66624 26.834 7.23291 27.4007 7.23291 28.084C7.23291 30.1673 9.2495 31.734 11.9495 31.734C14.6495 31.734 16.6662 30.1673 16.6662 28.084C16.6662 27.4007 17.2329 26.834 17.9162 26.834C18.5995 26.834 19.1662 27.4007 19.1662 28.084V31.484C19.1662 35.034 15.9328 37.9174 11.9495 37.9174ZM7.66616 33.1174C8.39949 34.484 10.0495 35.4174 11.9495 35.4174C13.8495 35.4174 15.4995 34.4674 16.2328 33.1174C15.0495 33.834 13.5828 34.2507 11.9495 34.2507C10.3162 34.2507 8.84949 33.834 7.66616 33.1174Z" fill="#E63E1F"/>
<path d="M11.9495 29.6657C9.21617 29.6657 6.76623 28.4157 5.54956 26.4324C5.01623 25.5657 4.73291 24.5491 4.73291 23.5157C4.73291 21.7657 5.49956 20.1324 6.89956 18.9157C9.59956 16.5491 14.2495 16.5491 16.9662 18.8991C18.3662 20.1325 19.1495 21.7657 19.1495 23.5157C19.1495 24.5491 18.8662 25.5657 18.3329 26.4324C17.1329 28.4157 14.6828 29.6657 11.9495 29.6657ZM11.9495 19.5824C10.6495 19.5824 9.44954 20.0157 8.54954 20.7991C7.69954 21.5324 7.23291 22.4991 7.23291 23.5157C7.23291 24.0991 7.38284 24.6325 7.68284 25.1325C8.44951 26.3991 10.0828 27.1824 11.9495 27.1824C13.8162 27.1824 15.4495 26.3991 16.1995 25.1491C16.4995 24.6658 16.6495 24.1158 16.6495 23.5324C16.6495 22.5158 16.1829 21.5491 15.3329 20.7991C14.4496 20.0157 13.2495 19.5824 11.9495 19.5824Z" fill="#E63E1F"/>
<path d="M11.9495 34.2506C7.83284 34.2506 4.73291 31.6006 4.73291 28.1006V23.5173C4.73291 19.9673 7.96617 17.084 11.9495 17.084C13.8328 17.084 15.6329 17.734 16.9829 18.9007C18.3829 20.134 19.1662 21.7673 19.1662 23.5173V28.1006C19.1662 31.6006 16.0662 34.2506 11.9495 34.2506ZM11.9495 19.584C9.3495 19.584 7.23291 21.3506 7.23291 23.5173V28.1006C7.23291 30.184 9.2495 31.7506 11.9495 31.7506C14.6495 31.7506 16.6662 30.184 16.6662 28.1006V23.5173C16.6662 22.5006 16.1996 21.5339 15.3496 20.7839C14.4496 20.0173 13.2495 19.584 11.9495 19.584Z" fill="#E63E1F"/>
<path d="M31.733 24.6673C29.2163 24.6673 27.083 22.8006 26.883 20.4006C26.7497 19.0173 27.2497 17.6673 28.2497 16.684C29.083 15.8173 30.2663 15.334 31.5163 15.334H34.9997C36.6497 15.384 37.9164 16.6839 37.9164 18.2839V21.7173C37.9164 23.3173 36.6497 24.6173 35.0497 24.6673H31.733ZM34.9496 17.834H31.533C30.9497 17.834 30.4164 18.0506 30.0331 18.4506C29.5497 18.9173 29.3164 19.5506 29.383 20.1839C29.4664 21.2839 30.533 22.1673 31.733 22.1673H34.9997C35.2164 22.1673 35.4164 21.9673 35.4164 21.7173V18.2839C35.4164 18.0339 35.2163 17.8507 34.9496 17.834Z" fill="#E63E1F"/>
<path d="M26.6669 35.4173H22.5002C21.8169 35.4173 21.2502 34.8507 21.2502 34.1673C21.2502 33.484 21.8169 32.9173 22.5002 32.9173H26.6669C30.9669 32.9173 33.7502 30.134 33.7502 25.834V24.6673H31.7335C29.2169 24.6673 27.0836 22.8006 26.8836 20.4006C26.7503 19.0173 27.2503 17.6673 28.2503 16.684C29.0836 15.8173 30.2669 15.334 31.5169 15.334H33.7336V14.1673C33.7336 10.2673 31.4503 7.58395 27.7503 7.15061C27.3503 7.08395 27.0002 7.08398 26.6502 7.08398H11.6502C11.2502 7.08398 10.8669 7.1173 10.4835 7.1673C6.81687 7.63396 4.56689 10.3007 4.56689 14.1673V17.5007C4.56689 18.184 4.00023 18.7507 3.31689 18.7507C2.63356 18.7507 2.06689 18.184 2.06689 17.5007V14.1673C2.06689 9.03398 5.23362 5.31733 10.1503 4.70066C10.6003 4.634 11.1169 4.58398 11.6502 4.58398H26.6502C27.0502 4.58398 27.5669 4.60065 28.1002 4.68398C33.0169 5.25065 36.2336 8.98398 36.2336 14.1673V16.584C36.2336 17.2673 35.6669 17.834 34.9836 17.834H31.5169C30.9335 17.834 30.4003 18.0507 30.0169 18.4507C29.5336 18.9173 29.3002 19.5506 29.3669 20.184C29.4502 21.284 30.517 22.1673 31.717 22.1673H35.0002C35.6836 22.1673 36.2502 22.734 36.2502 23.4173V25.834C36.2502 31.5673 32.4002 35.4173 26.6669 35.4173Z" fill="#E63E1F"/>
</svg>
