<svg width="35" height="36" viewBox="0 0 35 36" fill="none" xmlns="http://www.w3.org/2000/svg">
<path fill-rule="evenodd" clip-rule="evenodd" d="M13.9552 0.0358138C9.85664 0.302053 6.14813 1.30082 3.74246 2.78636C1.86351 3.9467 0.73918 5.21055 0.21015 6.75707L4.51778e-07 7.37141V11.2878C4.51778e-07 15.5413 -0.00283558 15.5066 0.440896 16.637C0.937985 17.9035 1.87672 18.9861 3.17888 19.7947L3.37261 19.9151L3.27366 20.4009C3.12403 21.1361 3.13216 28.0544 3.28351 28.7897C3.96985 32.1234 8.26485 34.7759 14.4776 35.703C15.9732 35.9262 17.1313 35.9999 19.1418 36C22.0445 36 24.08 35.7581 26.5672 35.1174C30.9653 33.9847 33.8844 31.9042 34.7899 29.2572L35 28.6429V24.7265C35 21.2226 34.9861 20.7585 34.8685 20.3202C34.5495 19.1319 34.1279 18.3381 33.3707 17.4994C32.9513 17.035 31.9966 16.2689 31.6931 16.1534C31.6477 16.1361 31.6589 15.9384 31.7228 15.6266C31.8758 14.881 31.8706 7.97315 31.7165 7.22458C30.9684 3.59092 25.8648 0.7582 18.9179 0.120746C17.6788 0.00701691 15.0824 -0.0374461 13.9552 0.0358138ZM18.0554 3.34449C22.4054 3.68215 26.2041 4.98324 27.8713 6.70631C29.0365 7.91072 28.8461 8.97184 27.2458 10.1928C23.2789 13.2195 14.2141 14.0067 7.89776 11.8731C5.18784 10.9577 3.1806 9.3859 3.17328 8.17358C3.16709 7.1461 4.59612 5.8586 6.7947 4.91075C9.75194 3.63577 14.0708 3.03509 18.0554 3.34449ZM4.27321 13.7769C6.71508 15.0411 9.1459 15.804 12.0522 16.218C13.4317 16.4146 18.3908 16.4119 19.7761 16.2138C22.6352 15.8051 24.955 15.0886 27.3507 13.8743C27.9869 13.5519 28.5326 13.2757 28.5634 13.2607C28.5942 13.2456 28.6187 13.6421 28.6178 14.142C28.6158 15.2131 28.526 15.4841 27.9707 16.0956C26.5522 17.6572 23.3159 18.9238 19.4403 19.4341C18.1887 19.5989 14.9176 19.6636 13.5821 19.55C9.37209 19.1919 5.695 17.9311 4.0209 16.2718C3.32284 15.5799 3.17328 15.1989 3.17239 14.1099C3.17194 13.6348 3.18881 13.246 3.20978 13.246C3.23075 13.246 3.70925 13.4849 4.27321 13.7769ZM30.3048 19.1666C30.8974 19.5889 31.3505 20.0461 31.5915 20.4645C31.8313 20.8809 31.8631 21.5807 31.6601 21.9719C31.3046 22.6566 30.2221 23.5615 29.0299 24.1702C24.3003 26.5852 16.1099 26.8777 10.6343 24.8272C8.57821 24.0572 7.05963 23.0004 6.56455 21.995C6.34284 21.5448 6.3244 21.3471 6.51119 21.4218C6.98694 21.6121 8.80896 22.1111 9.72679 22.3025C12.1549 22.8089 13.9167 22.9628 16.5299 22.8965C19.9177 22.8107 22.5785 22.3684 25.1493 21.464C26.4562 21.0041 28.2916 20.0469 29.1045 19.4012C29.4739 19.1077 29.7957 18.8642 29.8197 18.8598C29.8437 18.8554 30.062 18.9935 30.3048 19.1666ZM9.23604 27.7155C11.7334 28.7467 14.1481 29.2926 16.8758 29.4425C18.4375 29.5285 21.3686 29.4914 22.4627 29.3719C25.4614 29.0444 28.5258 28.0999 31.0634 26.7209L31.8284 26.3053L31.8267 27.2053C31.8247 28.3045 31.7333 28.5534 31.0707 29.2635C29.5405 30.9031 26.2598 32.1165 22.0149 32.6125C20.9404 32.7381 17.2669 32.738 16.1567 32.6125C12.0821 32.1515 8.67254 30.9036 7.12873 29.308C6.48224 28.6398 6.3806 28.3594 6.3806 27.2449V26.3177L7.30425 26.8084C7.81224 27.0783 8.68157 27.4865 9.23604 27.7155Z" fill="#E63E1F"/>
</svg>
