<svg width="36" height="33" viewBox="0 0 36 33" fill="none" xmlns="http://www.w3.org/2000/svg">
<path fill-rule="evenodd" clip-rule="evenodd" d="M9.39335 7.13351C4.66597 11.0543 0.727507 14.315 0.641281 14.3794L0.484375 14.4966L1.34356 15.5141C1.81612 16.0737 2.23356 16.5316 2.27129 16.5316C2.30903 16.5316 2.76961 16.1725 3.29491 15.7336C3.82015 15.2948 4.26689 14.9357 4.28758 14.9357C4.30833 14.9357 4.32524 19.0001 4.32524 23.9678V33H18.0228H31.7204V23.9678C31.7204 19.0001 31.7369 14.9357 31.757 14.9357C31.7772 14.9357 32.2413 15.3068 32.7882 15.7604C33.3647 16.2384 33.8078 16.5596 33.8424 16.5244C33.8752 16.491 34.2751 16.0214 34.7311 15.4809C35.5294 14.5349 35.5552 14.4944 35.4254 14.3944C35.3511 14.3372 34.1797 13.3737 32.8222 12.2532L30.3541 10.2159L30.3524 5.30929L30.3506 0.402719H26.2414H22.1321V1.89819V3.39372L20.0792 1.69445C18.9501 0.759931 18.0178 -0.00264165 18.0075 6.87825e-06C17.9971 0.0025875 14.1207 3.21267 9.39335 7.13351ZM27.6111 5.50168C27.6111 6.81209 27.5856 7.87408 27.5543 7.86159C27.5231 7.84916 26.9067 7.35063 26.1846 6.75376L24.8716 5.66847V4.39385V3.11916H26.2414H27.6111V5.50168ZM23.5575 8.11062L28.9761 12.5927L28.9785 21.4382L28.9809 30.2836H18.0228H7.06476L7.06873 21.4382L7.07264 12.5927L12.4964 8.09676C15.4794 5.62392 17.9693 3.60696 18.0295 3.61464C18.0897 3.62224 20.5774 5.64545 23.5575 8.11062Z" fill="#E63E1F"/>
<path fill-rule="evenodd" clip-rule="evenodd" d="M17.5383 12.0278C16.1989 12.0982 14.9089 12.5301 13.7465 13.2974C13.174 13.6753 12.1144 14.73 11.7357 15.2989C11.1952 16.1108 10.7925 17.0731 10.5857 18.0473C10.5036 18.434 10.4879 18.6514 10.4846 19.4433C10.4802 20.5012 10.5473 20.961 10.8329 21.8284C11.2099 22.9738 12.0379 24.2607 12.857 24.9741L13.1109 25.1953L12.5301 25.7802C11.9816 26.3325 11.9493 26.3747 11.9506 26.536C11.9514 26.63 11.9761 26.7381 12.0054 26.7762C12.1484 26.9615 12.1884 26.965 14.3712 26.9829L16.4644 27V24.4326V21.8653L15.4886 22.8355C14.952 23.3692 14.4915 23.8058 14.4653 23.8058C14.378 23.8058 13.5355 22.9049 13.3382 22.6007C12.6412 21.5253 12.3526 20.5015 12.3999 19.2722C12.454 17.8653 12.9805 16.6444 13.9732 15.6231C15.0099 14.5565 16.2181 14.0293 17.889 13.9143L18.3712 13.8811V12.9431V12.0052L18.2616 12.0004C18.2014 11.9977 17.8759 12.0101 17.5383 12.0278ZM19.4891 14.1014C19.4891 16.4028 19.4867 16.3824 19.7669 16.4745C19.8746 16.5099 19.9492 16.51 20.0413 16.4751C20.111 16.4488 20.4549 16.1439 20.8057 15.7976C21.1564 15.4514 21.4643 15.168 21.4898 15.168C21.5743 15.168 22.3613 16.0131 22.5868 16.3459C23.0134 16.9756 23.3199 17.7039 23.4628 18.4279C23.5554 18.8967 23.5655 19.9715 23.4819 20.4467C23.1882 22.1147 22.0603 23.6347 20.5363 24.4162C19.7605 24.8141 19.0588 24.9921 18.0307 25.052L17.5586 25.0795L17.5704 26.0241L17.5822 26.9687L18.0863 26.9589C20.5922 26.9107 22.8608 25.6711 24.2562 23.5877C25.6957 21.4383 25.8837 18.631 24.7467 16.2622C24.3501 15.4359 24.0027 14.9479 23.3072 14.2399L22.8455 13.7699L23.7203 12.8985L24.5951 12.027H22.0421H19.4891V14.1014Z" fill="#E63E1F"/>
</svg>
