<svg width="30" height="27" viewBox="0 0 30 27" fill="none" xmlns="http://www.w3.org/2000/svg">
<path fill-rule="evenodd" clip-rule="evenodd" d="M3.04212 0.781184C1.94783 1.0055 1.05543 1.7926 0.687241 2.85831L0.556641 3.23622V11.7377V20.2392L0.687241 20.6171C1.00696 21.5425 1.69855 22.239 2.65122 22.5948C2.97078 22.7142 3.08166 22.7207 5.14631 22.7399L7.30698 22.7601V11.7413V0.722493L5.28753 0.728706C4.17685 0.732096 3.16639 0.755708 3.04212 0.781184ZM9.00162 11.7377V22.7549L17.9974 22.7398L26.9931 22.7246L27.3275 22.5973C28.2873 22.2317 28.9722 21.5412 29.2915 20.6171L29.4221 20.2392V11.7377V3.23622L29.2915 2.85831C28.9722 1.93416 28.2873 1.24365 27.3275 0.878118L26.9931 0.750737L17.9974 0.735598L9.00162 0.720459V11.7377ZM4.31457 4.22549C4.45811 4.2987 4.57809 4.41868 4.6513 4.56222C4.76173 4.77868 4.76501 4.88867 4.76501 8.35258V11.92L4.63836 12.1454C4.49618 12.3983 4.18832 12.585 3.91351 12.585C3.65078 12.585 3.3018 12.3653 3.17752 12.1217C3.07556 11.9218 3.07048 11.7379 3.07274 8.33653C3.07539 4.31729 3.05477 4.515 3.49928 4.24594C3.76974 4.08224 4.02134 4.07591 4.31457 4.22549ZM20.6934 4.2521C21.6437 4.44309 22.6681 4.87336 23.5191 5.43903C23.7521 5.59392 24.2259 6.00047 24.572 6.3425C25.7164 7.47339 26.37 8.68749 26.7204 10.3325C26.8606 10.9911 26.8606 12.4843 26.7204 13.1428C26.3702 14.787 25.7225 15.9886 24.5694 17.1329C23.4352 18.2584 22.2598 18.8855 20.6368 19.2309C19.9724 19.3723 18.4823 19.373 17.8208 19.2321C16.2084 18.8887 14.9905 18.2367 13.8518 17.1071C12.7427 16.0069 12.0609 14.7349 11.7308 13.1499C11.5921 12.4837 11.5921 10.9918 11.7308 10.3255C12.0612 8.73896 12.711 7.52186 13.8302 6.39323C15.1036 5.10914 16.6153 4.37152 18.4351 4.1463C18.814 4.09941 20.274 4.16782 20.6934 4.2521ZM19.6768 5.89246C19.567 6.02476 19.3975 6.61359 19.3359 7.07679C19.2606 7.64207 19.3329 8.22971 19.5496 8.81437C19.7615 9.38614 19.8444 9.39834 20.1191 8.89803C20.5751 8.06703 21.2545 7.32489 21.9552 6.89241L22.2849 6.68894L22.1535 6.58766C21.6763 6.21975 19.8343 5.70266 19.6768 5.89246ZM17.196 6.17501C16.6439 6.37549 15.9167 6.77995 15.5665 7.08142L15.365 7.2549L15.5725 7.67477C15.8282 8.19243 16.1517 8.59271 16.6137 8.96333C17.2138 9.44461 17.9749 9.7388 17.9455 9.47816C17.9401 9.43156 17.8677 9.13923 17.7844 8.82855C17.6579 8.3567 17.6326 8.14272 17.6306 7.52932C17.6291 7.03482 17.6585 6.66929 17.721 6.41017C17.772 6.19851 17.8138 6.01425 17.8138 6.00064C17.8138 5.95686 17.7386 5.97804 17.196 6.17501ZM23.2633 8.09567C22.5203 8.46657 21.9347 9.05489 21.566 9.80116C21.3615 10.215 21.3297 10.4747 21.4855 10.4572C21.5321 10.4518 21.8244 10.3794 22.1351 10.2961C22.8366 10.1081 23.9207 10.0802 24.5583 10.2339C24.7726 10.2855 24.9577 10.3179 24.9697 10.3059C25.0251 10.2505 24.5666 9.12748 24.3264 8.73014C24.0502 8.27327 23.766 7.8961 23.6985 7.897C23.6775 7.89728 23.4817 7.9867 23.2633 8.09567ZM14.01 8.92294C13.6024 9.6252 13.1999 11.1368 13.3808 11.2869C13.5097 11.3938 14.0914 11.5636 14.5392 11.6249C14.8665 11.6698 15.1144 11.6694 15.4477 11.6238C15.9917 11.5494 16.6657 11.3126 16.7425 11.169C16.8041 11.0541 16.8157 11.0645 16.3484 10.8172C15.6064 10.4243 14.8549 9.74134 14.413 9.058C14.2937 8.87351 14.1862 8.71263 14.1741 8.70054C14.1619 8.6884 14.0882 8.7885 14.01 8.92294ZM18.8171 11.0068C18.5786 11.1328 18.3787 11.466 18.3787 11.7377C18.3787 11.8334 18.4298 12.012 18.4924 12.1346C18.6203 12.3852 18.9457 12.585 19.226 12.585C19.6558 12.585 20.0733 12.1675 20.0733 11.7377C20.0733 11.4574 19.8735 11.132 19.6229 11.0041C19.3446 10.8621 19.0896 10.863 18.8171 11.0068ZM22.813 11.8747C22.2883 11.9762 21.7808 12.1731 21.7118 12.3019C21.6636 12.3921 21.7106 12.4359 22.0656 12.6308C22.8966 13.0868 23.6388 13.7662 24.0713 14.4669L24.2747 14.7966L24.3758 14.6652C24.6381 14.3243 25.0686 13.0257 25.1121 12.4438C25.1277 12.235 25.114 12.2105 24.9313 12.1215C24.3963 11.8609 23.4528 11.751 22.813 11.8747ZM16.4882 13.1297C15.6315 13.3865 14.7294 13.4203 13.8654 13.2281C13.6667 13.1838 13.4942 13.1575 13.4823 13.1695C13.4702 13.1815 13.5497 13.441 13.6588 13.7463C13.8622 14.3153 14.2617 15.0394 14.5697 15.3972L14.7432 15.5987L15.1647 15.3904C15.9258 15.0143 16.5512 14.3817 16.9146 13.6203C17.0808 13.2721 17.1124 13.0299 16.9947 13.0061C16.9636 12.9999 16.7358 13.0555 16.4882 13.1297ZM20.505 13.9277C20.4902 13.9516 20.5397 14.1837 20.6149 14.4435C20.8748 15.3408 20.9089 16.233 20.7164 17.0982C20.6721 17.297 20.645 17.4686 20.6559 17.4795C20.6843 17.5079 21.328 17.2918 21.6833 17.1347C22.0389 16.9774 22.8377 16.4731 22.9796 16.3164C23.076 16.2098 23.0723 16.1908 22.8759 15.7932C22.5036 15.0399 21.9159 14.45 21.1709 14.0818C20.7826 13.89 20.5601 13.8385 20.505 13.9277ZM18.3493 14.5486C17.8883 15.39 17.1936 16.1529 16.496 16.5834C16.1886 16.7732 16.1727 16.793 16.2694 16.8677C16.7577 17.2445 18.615 17.7759 18.774 17.5843C18.882 17.4541 19.0517 16.8742 19.1132 16.4245C19.1581 16.0972 19.1577 15.8492 19.1121 15.516C19.0379 14.9741 18.8011 14.2981 18.6587 14.2219C18.5729 14.1759 18.5268 14.2246 18.3493 14.5486ZM4.31457 14.3934C4.56657 14.5219 4.76501 14.847 4.76501 15.1312C4.76501 15.5487 4.33514 15.9743 3.91351 15.9743C3.65078 15.9743 3.3018 15.7546 3.17752 15.511C2.96891 15.1021 3.09985 14.6556 3.49928 14.4138C3.76974 14.2501 4.02134 14.2438 4.31457 14.3934ZM4.31457 17.7827C4.56657 17.9112 4.76501 18.2363 4.76501 18.5204C4.76501 18.938 4.33514 19.3636 3.91351 19.3636C3.65078 19.3636 3.3018 19.1439 3.17752 18.9003C2.96891 18.4914 3.09985 18.0449 3.49928 17.8031C3.76974 17.6394 4.02134 17.6331 4.31457 17.7827ZM3.63525 24.9582C3.63525 25.5874 3.74845 25.8564 4.08568 26.0285C4.28475 26.13 4.41778 26.1422 5.32989 26.1422C6.24201 26.1422 6.37504 26.13 6.5741 26.0285C6.91133 25.8564 7.02454 25.5874 7.02454 24.9582V24.4475H5.32989H3.63525V24.9582ZM22.9542 24.9582C22.9542 25.5874 23.0674 25.8564 23.4046 26.0285C23.6037 26.13 23.7367 26.1422 24.6488 26.1422C25.561 26.1422 25.694 26.13 25.8931 26.0285C26.2303 25.8564 26.3435 25.5874 26.3435 24.9582V24.4475H24.6488H22.9542V24.9582Z" fill="#E63E1F"/>
</svg>
